<?xml version="1.0" encoding="UTF-8" standalone="no"?>
<!DOCTYPE svg PUBLIC "-//W3C//DTD SVG 1.1//EN" "http://www.w3.org/Graphics/SVG/1.1/DTD/svg11.dtd">
<svg xmlns="http://www.w3.org/2000/svg" version="1.1" viewBox="0.00 0.00 1024.00 1024.00">
<g stroke-width="2.00" fill="none" stroke-linecap="butt">
<path stroke="#020b21" vector-effect="non-scaling-stroke" d="
  M 259.23 224.00
  Q 256.02 224.79 256.25 229.24
  Q 256.65 237.07 256.06 257.44
  C 255.62 272.60 255.99 289.21 255.87 303.00
  Q 255.48 348.84 255.60 394.69
  C 255.60 397.79 256.11 400.99 256.11 403.86
  Q 256.08 458.53 256.15 513.19
  C 256.18 536.23 255.65 559.21 256.18 582.25
  C 256.59 600.29 255.76 619.50 256.48 636.50
  Q 256.59 638.84 258.02 642.04
  Q 258.24 642.51 258.75 642.52
  Q 272.25 642.92 285.75 642.72
  C 286.96 642.70 288.44 643.56 289.78 643.52
  Q 295.71 643.34 301.63 643.23
  C 302.63 643.21 303.90 643.73 305.06 643.52
  Q 307.02 643.18 307.50 643.19
  Q 317.37 643.53 327.25 643.87
  C 332.93 644.07 339.18 643.41 345.22 643.49
  C 347.10 643.52 349.17 642.52 351.41 643.21
  Q 351.81 643.34 352.14 643.10
  C 353.53 642.09 355.44 643.14 357.34 641.48
  Q 357.72 641.15 358.23 641.13
  Q 360.11 641.05 361.54 640.25"
/>
<path stroke="#7f7f7c" vector-effect="non-scaling-stroke" d="
  M 361.54 640.25
  L 386.72 640.15
  Q 387.30 640.15 387.32 639.57
  Q 388.61 603.97 395.53 569.06
  C 401.46 539.15 424.31 509.21 456.93 507.10
  C 466.64 506.47 478.52 506.95 485.94 506.97
  Q 506.94 507.04 527.94 507.27
  C 548.20 507.49 565.78 512.14 580.92 525.84
  C 598.54 541.79 604.32 558.58 607.75 581.01
  Q 612.60 612.78 614.57 640.12
  Q 614.59 640.43 614.90 640.43
  L 736.65 640.32
  Q 737.21 640.32 737.19 639.76
  C 736.52 618.63 737.05 597.62 736.99 576.50
  C 736.71 459.03 736.97 341.57 736.69 224.10
  C 736.67 215.15 734.86 207.34 726.60 202.99
  Q 723.62 201.41 721.44 201.44
  C 667.15 202.08 612.74 201.75 558.45 201.63
  C 449.77 201.39 372.87 202.13 280.74 201.36
  Q 274.79 201.31 271.46 202.58
  C 263.73 205.52 259.64 212.12 259.50 220.66
  Q 259.47 222.33 259.23 224.00"
/>
<path stroke="#807b6d" vector-effect="non-scaling-stroke" d="
  M 361.54 640.25
  L 259.76 640.77
  Q 259.23 640.77 259.23 640.24
  L 259.23 224.00"
/>
<path stroke="#0b8198" vector-effect="non-scaling-stroke" d="
  M 585.87 606.99
  L 584.09 590.56
  Q 584.04 590.08 583.55 590.06
  Q 510.66 587.93 452.94 589.13
  Q 431.03 589.59 419.80 589.19
  Q 419.39 589.17 419.35 589.58
  L 417.68 606.82"
/>
<path stroke="#7f7f7c" vector-effect="non-scaling-stroke" d="
  M 285.48 668.42
  C 268.76 667.59 253.56 667.30 242.06 681.56
  Q 235.59 689.59 235.10 700.20"
/>
<path stroke="#364044" vector-effect="non-scaling-stroke" d="
  M 235.10 700.20
  Q 232.74 709.91 236.79 720.41"
/>
<path stroke="#020b21" vector-effect="non-scaling-stroke" d="
  M 236.79 720.41
  Q 235.98 720.47 235.66 721.33
  Q 235.47 721.86 235.68 722.64
  Q 239.52 737.10 252.52 742.41"
/>
<path stroke="#364044" vector-effect="non-scaling-stroke" d="
  M 252.52 742.41
  C 262.70 748.48 272.16 750.99 284.70 751.40
  Q 301.32 751.93 317.89 751.34
  Q 318.38 751.32 318.21 750.86
  Q 314.13 740.04 323.02 732.00"
/>
<path stroke="#7f7f7c" vector-effect="non-scaling-stroke" d="
  M 323.02 732.00
  L 336.00 730.75"
/>
<path stroke="#020b21" vector-effect="non-scaling-stroke" d="
  M 336.00 730.75
  Q 335.44 731.44 336.23 732.28
  Q 336.57 732.63 337.06 732.63
  Q 368.65 732.79 400.24 732.01
  C 401.84 731.97 403.52 732.45 405.25 732.45
  C 432.14 732.50 459.05 732.49 485.94 733.14
  Q 497.72 733.43 513.25 732.81
  Q 534.26 731.98 573.18 733.09
  C 583.07 733.37 591.60 734.21 597.16 733.05
  Q 598.59 732.76 599.86 732.75
  Q 618.76 732.73 637.64 732.77
  C 639.88 732.78 643.04 733.26 645.81 732.99
  C 654.23 732.18 662.83 732.78 671.28 732.91
  Q 672.74 732.94 676.63 733.67
  Q 679.90 734.28 683.04 733.51"
/>
<path stroke="#364044" vector-effect="non-scaling-stroke" d="
  M 683.04 733.51
  Q 686.44 734.84 688.09 738.19
  Q 691.05 744.23 690.97 750.62
  A 1.41 1.41 0.0 0 0 692.38 752.05
  C 713.38 751.97 732.65 753.58 748.44 737.59
  C 762.10 723.75 767.19 701.38 756.67 684.07
  Q 744.72 664.42 721.37 668.83"
/>
<path stroke="#7f7f7c" vector-effect="non-scaling-stroke" d="
  M 721.37 668.83
  L 715.25 668.54"
/>
<path stroke="#020b21" vector-effect="non-scaling-stroke" d="
  M 715.25 668.54
  Q 715.54 667.71 715.22 667.54
  Q 713.71 666.70 712.01 666.59
  C 705.64 666.17 699.49 666.57 693.11 665.63
  C 684.68 664.40 674.92 665.24 666.32 665.16
  Q 649.58 665.02 640.41 665.40
  Q 635.13 665.62 629.84 665.42
  Q 618.47 665.00 607.00 665.24
  Q 606.51 665.25 605.89 665.59
  Q 605.44 665.84 604.93 665.83
  Q 588.75 665.53 583.69 665.88
  C 576.14 666.41 567.41 665.75 562.47 665.81
  C 532.48 666.15 502.44 665.93 472.44 666.06
  C 459.69 666.12 443.54 665.52 429.07 665.88
  C 421.71 666.07 411.82 667.64 402.55 666.31
  C 393.88 665.06 385.45 666.67 375.90 666.17
  C 347.93 664.70 319.07 665.58 291.05 666.16
  Q 290.55 666.17 290.27 666.58
  Q 289.73 667.37 288.74 667.29
  Q 286.68 667.13 285.48 668.42"
/>
<path stroke="#807b6d" vector-effect="non-scaling-stroke" d="
  M 715.25 668.54
  L 405.25 668.13
  Q 404.84 668.13 404.54 668.39
  Q 404.33 668.57 404.00 668.57
  Q 344.77 668.56 285.48 668.42"
/>
<path stroke="#807b6d" vector-effect="non-scaling-stroke" d="
  M 682.05 731.83
  Q 677.38 730.74 672.50 730.74
  Q 504.25 730.75 336.00 730.75"
/>
<path stroke="#b5b090" vector-effect="non-scaling-stroke" d="
  M 323.02 732.00
  C 308.19 730.55 292.89 731.28 277.99 731.23
  C 265.13 731.18 257.94 731.44 249.21 724.03
  Q 238.44 714.89 235.10 700.20"
/>
<path stroke="#383c35" vector-effect="non-scaling-stroke" d="
  M 683.04 733.51
  L 682.05 731.83"
/>
<path stroke="#b5b090" vector-effect="non-scaling-stroke" d="
  M 682.05 731.83
  Q 699.42 732.44 713.31 730.58
  Q 730.18 728.32 739.09 715.00
  C 747.74 702.06 747.64 684.92 734.16 675.12
  Q 728.72 671.16 721.37 668.83"
/>
<path stroke="#383c35" vector-effect="non-scaling-stroke" d="
  M 252.52 742.41
  Q 240.68 732.94 236.79 720.41"
/>
<path stroke="#012a4c" vector-effect="non-scaling-stroke" d="
  M 645.51 757.32
  C 615.66 756.48 585.79 756.85 555.94 756.79
  C 486.28 756.65 416.58 756.37 346.93 757.20
  Q 346.04 757.21 346.04 758.10
  Q 345.93 792.75 346.18 824.94
  C 346.28 837.00 347.56 847.08 357.19 855.05
  C 366.93 863.11 375.04 862.99 386.67 862.99
  Q 492.18 863.02 597.69 862.80
  C 613.88 862.77 638.69 863.36 643.90 842.68
  Q 645.53 836.22 645.72 827.68
  Q 646.47 792.60 646.23 758.05
  Q 646.22 757.34 645.51 757.32"
/>
<path stroke="#7f7f7c" vector-effect="non-scaling-stroke" d="
  M 523.19 365.56
  C 530.79 371.98 538.16 369.11 545.04 363.14
  C 577.87 334.65 608.65 311.62 640.67 286.15
  C 660.94 270.03 640.32 248.67 621.43 264.43
  C 608.32 275.37 595.06 285.58 583.05 295.37
  Q 552.85 319.96 522.16 343.93
  C 514.72 349.74 517.05 360.38 523.19 365.56"
/>
<path stroke="#807b6d" vector-effect="non-scaling-stroke" d="
  M 472.89 359.57
  C 474.52 352.15 468.65 347.72 464.08 343.67
  Q 424.89 308.95 385.27 274.82"
/>
<path stroke="#7f7f7c" vector-effect="non-scaling-stroke" d="
  M 385.27 274.82
  C 379.48 269.06 372.36 261.13 367.25 260.00
  C 357.25 257.79 350.00 263.34 350.24 273.21
  C 350.40 280.09 353.45 283.71 359.00 288.62
  C 385.74 312.30 412.74 335.67 439.49 359.33
  C 441.89 361.44 445.76 365.64 449.43 368.09
  C 458.51 374.14 470.63 371.18 472.89 359.57"
/>
<path stroke="#020b21" vector-effect="non-scaling-stroke" d="
  M 385.27 274.82
  Q 384.46 276.16 385.05 276.95
  Q 388.93 282.02 393.88 285.96
  A 1.13 1.09 -78.3 0 1 394.28 286.59
  Q 394.34 286.85 394.51 286.99
  Q 400.72 292.36 406.55 298.14
  Q 406.90 298.49 407.36 298.66
  Q 408.43 299.06 409.37 300.40
  Q 411.11 302.86 418.47 308.27
  Q 425.18 313.21 431.05 319.10
  C 434.62 322.68 439.10 324.59 442.60 328.71
  C 443.42 329.67 444.89 330.24 445.88 331.13
  Q 453.09 337.56 460.05 344.30
  C 463.01 347.18 466.67 348.35 469.32 352.12
  A 1.19 1.18 32.8 0 1 469.52 353.02
  Q 469.22 354.74 470.69 355.53
  Q 471.16 355.78 471.24 356.30
  Q 471.60 358.58 472.89 359.57"
/>
<path stroke="#7f7f7c" vector-effect="non-scaling-stroke" d="
  M 540.69 410.13
  C 551.00 431.44 568.28 465.94 598.47 456.76
  C 619.58 450.35 632.43 429.93 632.73 408.22
  Q 633.14 379.20 628.46 350.50
  C 627.91 347.12 626.65 343.39 622.82 343.05
  C 619.91 342.79 616.15 346.76 613.70 348.02
  C 609.56 350.16 605.85 352.14 602.12 355.15
  C 586.44 367.81 571.75 380.84 553.69 390.18
  Q 547.17 393.54 540.63 396.85
  C 535.24 399.57 538.74 406.08 540.69 410.13"
/>
<path stroke="#7f7f7c" vector-effect="non-scaling-stroke" d="
  M 367.99 344.89
  C 363.53 349.42 363.09 358.02 363.23 364.02
  Q 363.75 385.79 364.17 407.56
  C 364.67 433.92 386.06 466.14 416.57 456.31
  C 438.14 449.35 453.36 422.62 458.68 401.02
  Q 458.80 400.52 458.35 400.28
  Q 456.03 399.02 453.75 398.94"
/>
<path stroke="#807b6d" vector-effect="non-scaling-stroke" d="
  M 453.75 398.94
  C 427.83 387.25 404.21 366.65 381.51 348.51
  C 377.66 345.44 372.51 341.28 367.99 344.89"
/>
<path stroke="#020b21" vector-effect="non-scaling-stroke" d="
  M 453.75 398.94
  Q 447.61 399.92 440.92 395.05
  A 1.53 1.50 61.9 0 0 439.96 394.75
  C 436.87 394.86 433.81 392.29 430.47 390.54
  C 426.85 388.64 422.32 383.60 417.06 381.24
  Q 414.47 380.08 413.63 378.89
  Q 410.17 373.99 404.57 371.77
  Q 404.11 371.59 403.82 371.19
  C 401.17 367.63 396.69 365.05 394.36 363.06
  Q 379.94 350.75 375.01 347.25
  Q 373.32 346.05 367.99 344.89"
/>
<path stroke="#012a4c" vector-effect="non-scaling-stroke" d="
  M 524.22 824.17
  C 524.36 830.03 527.78 836.06 534.07 836.92
  Q 546.62 838.64 559.18 837.59
  C 568.63 836.80 573.80 834.08 573.92 824.01
  Q 574.08 811.24 574.24 798.49
  C 574.35 788.93 573.10 781.59 564.34 777.62
  Q 560.60 775.92 553.79 775.91
  C 539.90 775.89 524.25 775.76 524.05 794.27
  Q 523.88 809.21 524.22 824.17"
/>
<path stroke="#012a4c" vector-effect="non-scaling-stroke" d="
  M 440.89 837.72
  L 467.37 837.82
  A 12.04 12.04 0.0 0 0 479.45 825.82
  L 479.56 796.80
  A 20.66 20.02 -89.8 0 0 459.61 776.07
  L 449.09 776.03
  A 20.66 20.02 -89.8 0 0 429.00 796.62
  L 428.89 825.64
  A 12.04 12.04 0.0 0 0 440.89 837.72"
/>
</g>
<path fill="#000f30" d="
  M 321.27 780.08
  A 0.79 0.78 -88.6 0 0 320.49 779.25
  Q 299.36 779.20 278.22 778.19
  C 241.18 776.43 212.99 749.93 207.76 713.51
  Q 206.67 705.94 207.79 697.55
  C 210.42 677.88 217.49 665.17 233.12 653.06
  Q 233.54 652.73 233.49 652.21
  Q 232.94 646.91 232.96 644.00
  C 233.71 562.43 232.72 489.90 233.35 399.18
  Q 233.35 398.69 233.16 398.24
  Q 232.96 397.77 232.97 397.00
  C 234.02 342.61 232.89 282.68 232.98 225.50
  Q 232.99 217.98 233.80 210.51
  C 235.71 192.97 249.49 179.01 266.82 176.63
  C 271.42 176.00 277.96 176.01 283.15 176.01
  Q 494.57 175.98 706.00 176.07
  C 721.92 176.07 734.48 175.13 747.30 185.59
  C 763.84 199.08 762.00 216.64 762.01 235.34
  C 762.04 334.68 761.85 398.90 761.70 463.06
  C 761.55 525.65 761.47 588.42 762.66 650.93
  A 2.82 2.80 20.6 0 0 763.59 652.97
  C 774.34 662.63 785.08 676.18 787.66 690.93
  C 791.24 711.36 787.02 731.24 774.33 747.72
  Q 751.29 777.63 711.06 778.65
  Q 691.77 779.14 672.44 778.99
  A 1.67 1.67 0.0 0 0 670.76 780.66
  Q 670.75 806.88 670.71 833.24
  C 670.68 861.19 650.48 885.46 621.81 886.58
  Q 601.27 887.39 566.43 886.94
  C 500.56 886.09 435.28 887.46 368.74 886.46
  Q 347.36 886.14 334.13 870.17
  C 326.19 860.58 321.08 848.75 320.78 836.15
  Q 320.13 807.92 321.27 780.08
  Z
  M 259.23 224.00
  Q 256.02 224.79 256.25 229.24
  Q 256.65 237.07 256.06 257.44
  C 255.62 272.60 255.99 289.21 255.87 303.00
  Q 255.48 348.84 255.60 394.69
  C 255.60 397.79 256.11 400.99 256.11 403.86
  Q 256.08 458.53 256.15 513.19
  C 256.18 536.23 255.65 559.21 256.18 582.25
  C 256.59 600.29 255.76 619.50 256.48 636.50
  Q 256.59 638.84 258.02 642.04
  Q 258.24 642.51 258.75 642.52
  Q 272.25 642.92 285.75 642.72
  C 286.96 642.70 288.44 643.56 289.78 643.52
  Q 295.71 643.34 301.63 643.23
  C 302.63 643.21 303.90 643.73 305.06 643.52
  Q 307.02 643.18 307.50 643.19
  Q 317.37 643.53 327.25 643.87
  C 332.93 644.07 339.18 643.41 345.22 643.49
  C 347.10 643.52 349.17 642.52 351.41 643.21
  Q 351.81 643.34 352.14 643.10
  C 353.53 642.09 355.44 643.14 357.34 641.48
  Q 357.72 641.15 358.23 641.13
  Q 360.11 641.05 361.54 640.25
  L 386.72 640.15
  Q 387.30 640.15 387.32 639.57
  Q 388.61 603.97 395.53 569.06
  C 401.46 539.15 424.31 509.21 456.93 507.10
  C 466.64 506.47 478.52 506.95 485.94 506.97
  Q 506.94 507.04 527.94 507.27
  C 548.20 507.49 565.78 512.14 580.92 525.84
  C 598.54 541.79 604.32 558.58 607.75 581.01
  Q 612.60 612.78 614.57 640.12
  Q 614.59 640.43 614.90 640.43
  L 736.65 640.32
  Q 737.21 640.32 737.19 639.76
  C 736.52 618.63 737.05 597.62 736.99 576.50
  C 736.71 459.03 736.97 341.57 736.69 224.10
  C 736.67 215.15 734.86 207.34 726.60 202.99
  Q 723.62 201.41 721.44 201.44
  C 667.15 202.08 612.74 201.75 558.45 201.63
  C 449.77 201.39 372.87 202.13 280.74 201.36
  Q 274.79 201.31 271.46 202.58
  C 263.73 205.52 259.64 212.12 259.50 220.66
  Q 259.47 222.33 259.23 224.00
  Z
  M 424.27 566.61
  Q 481.50 567.14 538.79 566.98
  C 547.84 566.96 563.83 566.33 576.39 566.80
  A 1.21 1.21 0.0 0 0 577.60 565.27
  C 576.47 561.05 575.02 556.94 572.21 553.44
  C 564.10 543.32 552.41 534.07 538.99 533.47
  Q 510.27 532.20 476.78 532.46
  Q 463.41 532.57 456.92 534.17
  Q 432.67 540.17 423.36 565.29
  A 0.98 0.98 0.0 0 0 424.27 566.61
  Z
  M 417.68 606.82
  Q 416.92 608.14 416.83 609.32
  Q 415.71 624.63 415.36 639.49
  A 1.47 1.46 -89.4 0 0 416.82 640.99
  L 587.02 640.99
  A 1.34 1.34 0.0 0 0 588.36 639.56
  L 585.87 606.99
  L 584.09 590.56
  Q 584.04 590.08 583.55 590.06
  Q 510.66 587.93 452.94 589.13
  Q 431.03 589.59 419.80 589.19
  Q 419.39 589.17 419.35 589.58
  L 417.68 606.82
  Z
  M 285.48 668.42
  C 268.76 667.59 253.56 667.30 242.06 681.56
  Q 235.59 689.59 235.10 700.20
  Q 232.74 709.91 236.79 720.41
  Q 235.98 720.47 235.66 721.33
  Q 235.47 721.86 235.68 722.64
  Q 239.52 737.10 252.52 742.41
  C 262.70 748.48 272.16 750.99 284.70 751.40
  Q 301.32 751.93 317.89 751.34
  Q 318.38 751.32 318.21 750.86
  Q 314.13 740.04 323.02 732.00
  L 336.00 730.75
  Q 335.44 731.44 336.23 732.28
  Q 336.57 732.63 337.06 732.63
  Q 368.65 732.79 400.24 732.01
  C 401.84 731.97 403.52 732.45 405.25 732.45
  C 432.14 732.50 459.05 732.49 485.94 733.14
  Q 497.72 733.43 513.25 732.81
  Q 534.26 731.98 573.18 733.09
  C 583.07 733.37 591.60 734.21 597.16 733.05
  Q 598.59 732.76 599.86 732.75
  Q 618.76 732.73 637.64 732.77
  C 639.88 732.78 643.04 733.26 645.81 732.99
  C 654.23 732.18 662.83 732.78 671.28 732.91
  Q 672.74 732.94 676.63 733.67
  Q 679.90 734.28 683.04 733.51
  Q 686.44 734.84 688.09 738.19
  Q 691.05 744.23 690.97 750.62
  A 1.41 1.41 0.0 0 0 692.38 752.05
  C 713.38 751.97 732.65 753.58 748.44 737.59
  C 762.10 723.75 767.19 701.38 756.67 684.07
  Q 744.72 664.42 721.37 668.83
  L 715.25 668.54
  Q 715.54 667.71 715.22 667.54
  Q 713.71 666.70 712.01 666.59
  C 705.64 666.17 699.49 666.57 693.11 665.63
  C 684.68 664.40 674.92 665.24 666.32 665.16
  Q 649.58 665.02 640.41 665.40
  Q 635.13 665.62 629.84 665.42
  Q 618.47 665.00 607.00 665.24
  Q 606.51 665.25 605.89 665.59
  Q 605.44 665.84 604.93 665.83
  Q 588.75 665.53 583.69 665.88
  C 576.14 666.41 567.41 665.75 562.47 665.81
  C 532.48 666.15 502.44 665.93 472.44 666.06
  C 459.69 666.12 443.54 665.52 429.07 665.88
  C 421.71 666.07 411.82 667.64 402.55 666.31
  C 393.88 665.06 385.45 666.67 375.90 666.17
  C 347.93 664.70 319.07 665.58 291.05 666.16
  Q 290.55 666.17 290.27 666.58
  Q 289.73 667.37 288.74 667.29
  Q 286.68 667.13 285.48 668.42
  Z
  M 645.51 757.32
  C 615.66 756.48 585.79 756.85 555.94 756.79
  C 486.28 756.65 416.58 756.37 346.93 757.20
  Q 346.04 757.21 346.04 758.10
  Q 345.93 792.75 346.18 824.94
  C 346.28 837.00 347.56 847.08 357.19 855.05
  C 366.93 863.11 375.04 862.99 386.67 862.99
  Q 492.18 863.02 597.69 862.80
  C 613.88 862.77 638.69 863.36 643.90 842.68
  Q 645.53 836.22 645.72 827.68
  Q 646.47 792.60 646.23 758.05
  Q 646.22 757.34 645.51 757.32
  Z"
/>
<path fill="#fdefc8" d="
  M 361.54 640.25
  L 259.76 640.77
  Q 259.23 640.77 259.23 640.24
  L 259.23 224.00
  Q 259.47 222.33 259.50 220.66
  C 259.64 212.12 263.73 205.52 271.46 202.58
  Q 274.79 201.31 280.74 201.36
  C 372.87 202.13 449.77 201.39 558.45 201.63
  C 612.74 201.75 667.15 202.08 721.44 201.44
  Q 723.62 201.41 726.60 202.99
  C 734.86 207.34 736.67 215.15 736.69 224.10
  C 736.97 341.57 736.71 459.03 736.99 576.50
  C 737.05 597.62 736.52 618.63 737.19 639.76
  Q 737.21 640.32 736.65 640.32
  L 614.90 640.43
  Q 614.59 640.43 614.57 640.12
  Q 612.60 612.78 607.75 581.01
  C 604.32 558.58 598.54 541.79 580.92 525.84
  C 565.78 512.14 548.20 507.49 527.94 507.27
  Q 506.94 507.04 485.94 506.97
  C 478.52 506.95 466.64 506.47 456.93 507.10
  C 424.31 509.21 401.46 539.15 395.53 569.06
  Q 388.61 603.97 387.32 639.57
  Q 387.30 640.15 386.72 640.15
  L 361.54 640.25
  Z
  M 523.19 365.56
  C 530.79 371.98 538.16 369.11 545.04 363.14
  C 577.87 334.65 608.65 311.62 640.67 286.15
  C 660.94 270.03 640.32 248.67 621.43 264.43
  C 608.32 275.37 595.06 285.58 583.05 295.37
  Q 552.85 319.96 522.16 343.93
  C 514.72 349.74 517.05 360.38 523.19 365.56
  Z
  M 472.89 359.57
  C 474.52 352.15 468.65 347.72 464.08 343.67
  Q 424.89 308.95 385.27 274.82
  C 379.48 269.06 372.36 261.13 367.25 260.00
  C 357.25 257.79 350.00 263.34 350.24 273.21
  C 350.40 280.09 353.45 283.71 359.00 288.62
  C 385.74 312.30 412.74 335.67 439.49 359.33
  C 441.89 361.44 445.76 365.64 449.43 368.09
  C 458.51 374.14 470.63 371.18 472.89 359.57
  Z
  M 540.69 410.13
  C 551.00 431.44 568.28 465.94 598.47 456.76
  C 619.58 450.35 632.43 429.93 632.73 408.22
  Q 633.14 379.20 628.46 350.50
  C 627.91 347.12 626.65 343.39 622.82 343.05
  C 619.91 342.79 616.15 346.76 613.70 348.02
  C 609.56 350.16 605.85 352.14 602.12 355.15
  C 586.44 367.81 571.75 380.84 553.69 390.18
  Q 547.17 393.54 540.63 396.85
  C 535.24 399.57 538.74 406.08 540.69 410.13
  Z
  M 367.99 344.89
  C 363.53 349.42 363.09 358.02 363.23 364.02
  Q 363.75 385.79 364.17 407.56
  C 364.67 433.92 386.06 466.14 416.57 456.31
  C 438.14 449.35 453.36 422.62 458.68 401.02
  Q 458.80 400.52 458.35 400.28
  Q 456.03 399.02 453.75 398.94
  C 427.83 387.25 404.21 366.65 381.51 348.51
  C 377.66 345.44 372.51 341.28 367.99 344.89
  Z"
/>
<path fill="#030711" d="
  M 259.23 224.00
  L 259.23 640.24
  Q 259.23 640.77 259.76 640.77
  L 361.54 640.25
  Q 360.11 641.05 358.23 641.13
  Q 357.72 641.15 357.34 641.48
  C 355.44 643.14 353.53 642.09 352.14 643.10
  Q 351.81 643.34 351.41 643.21
  C 349.17 642.52 347.10 643.52 345.22 643.49
  C 339.18 643.41 332.93 644.07 327.25 643.87
  Q 317.37 643.53 307.50 643.19
  Q 307.02 643.18 305.06 643.52
  C 303.90 643.73 302.63 643.21 301.63 643.23
  Q 295.71 643.34 289.78 643.52
  C 288.44 643.56 286.96 642.70 285.75 642.72
  Q 272.25 642.92 258.75 642.52
  Q 258.24 642.51 258.02 642.04
  Q 256.59 638.84 256.48 636.50
  C 255.76 619.50 256.59 600.29 256.18 582.25
  C 255.65 559.21 256.18 536.23 256.15 513.19
  Q 256.08 458.53 256.11 403.86
  C 256.11 400.99 255.60 397.79 255.60 394.69
  Q 255.48 348.84 255.87 303.00
  C 255.99 289.21 255.62 272.60 256.06 257.44
  Q 256.65 237.07 256.25 229.24
  Q 256.02 224.79 259.23 224.00
  Z"
/>
<path fill="#000f30" d="
  M 523.19 365.56
  C 517.05 360.38 514.72 349.74 522.16 343.93
  Q 552.85 319.96 583.05 295.37
  C 595.06 285.58 608.32 275.37 621.43 264.43
  C 640.32 248.67 660.94 270.03 640.67 286.15
  C 608.65 311.62 577.87 334.65 545.04 363.14
  C 538.16 369.11 530.79 371.98 523.19 365.56
  Z"
/>
<path fill="#000f30" d="
  M 385.27 274.82
  Q 384.46 276.16 385.05 276.95
  Q 388.93 282.02 393.88 285.96
  A 1.13 1.09 -78.3 0 1 394.28 286.59
  Q 394.34 286.85 394.51 286.99
  Q 400.72 292.36 406.55 298.14
  Q 406.90 298.49 407.36 298.66
  Q 408.43 299.06 409.37 300.40
  Q 411.11 302.86 418.47 308.27
  Q 425.18 313.21 431.05 319.10
  C 434.62 322.68 439.10 324.59 442.60 328.71
  C 443.42 329.67 444.89 330.24 445.88 331.13
  Q 453.09 337.56 460.05 344.30
  C 463.01 347.18 466.67 348.35 469.32 352.12
  A 1.19 1.18 32.8 0 1 469.52 353.02
  Q 469.22 354.74 470.69 355.53
  Q 471.16 355.78 471.24 356.30
  Q 471.60 358.58 472.89 359.57
  C 470.63 371.18 458.51 374.14 449.43 368.09
  C 445.76 365.64 441.89 361.44 439.49 359.33
  C 412.74 335.67 385.74 312.30 359.00 288.62
  C 353.45 283.71 350.40 280.09 350.24 273.21
  C 350.00 263.34 357.25 257.79 367.25 260.00
  C 372.36 261.13 379.48 269.06 385.27 274.82
  Z"
/>
<path fill="#030711" d="
  M 385.27 274.82
  Q 424.89 308.95 464.08 343.67
  C 468.65 347.72 474.52 352.15 472.89 359.57
  Q 471.60 358.58 471.24 356.30
  Q 471.16 355.78 470.69 355.53
  Q 469.22 354.74 469.52 353.02
  A 1.19 1.18 32.8 0 0 469.32 352.12
  C 466.67 348.35 463.01 347.18 460.05 344.30
  Q 453.09 337.56 445.88 331.13
  C 444.89 330.24 443.42 329.67 442.60 328.71
  C 439.10 324.59 434.62 322.68 431.05 319.10
  Q 425.18 313.21 418.47 308.27
  Q 411.11 302.86 409.37 300.40
  Q 408.43 299.06 407.36 298.66
  Q 406.90 298.49 406.55 298.14
  Q 400.72 292.36 394.51 286.99
  Q 394.34 286.85 394.28 286.59
  A 1.13 1.09 -78.3 0 0 393.88 285.96
  Q 388.93 282.02 385.05 276.95
  Q 384.46 276.16 385.27 274.82
  Z"
/>
<path fill="#000f30" d="
  M 598.47 456.76
  C 568.28 465.94 551.00 431.44 540.69 410.13
  C 538.74 406.08 535.24 399.57 540.63 396.85
  Q 547.17 393.54 553.69 390.18
  C 571.75 380.84 586.44 367.81 602.12 355.15
  C 605.85 352.14 609.56 350.16 613.70 348.02
  C 616.15 346.76 619.91 342.79 622.82 343.05
  C 626.65 343.39 627.91 347.12 628.46 350.50
  Q 633.14 379.20 632.73 408.22
  C 632.43 429.93 619.58 450.35 598.47 456.76
  Z
  M 571.67 412.88
  C 573.93 417.79 584.24 434.86 591.24 432.48
  C 605.79 427.53 606.07 402.46 604.20 390.72
  A 1.04 1.03 -25.7 0 0 602.48 390.12
  C 593.11 398.69 583.19 404.73 572.22 411.15
  A 1.36 1.35 -27.5 0 0 571.67 412.88
  Z"
/>
<path fill="#030711" d="
  M 453.75 398.94
  Q 447.61 399.92 440.92 395.05
  A 1.53 1.50 61.9 0 0 439.96 394.75
  C 436.87 394.86 433.81 392.29 430.47 390.54
  C 426.85 388.64 422.32 383.60 417.06 381.24
  Q 414.47 380.08 413.63 378.89
  Q 410.17 373.99 404.57 371.77
  Q 404.11 371.59 403.82 371.19
  C 401.17 367.63 396.69 365.05 394.36 363.06
  Q 379.94 350.75 375.01 347.25
  Q 373.32 346.05 367.99 344.89
  C 372.51 341.28 377.66 345.44 381.51 348.51
  C 404.21 366.65 427.83 387.25 453.75 398.94
  Z"
/>
<path fill="#000f30" d="
  M 367.99 344.89
  Q 373.32 346.05 375.01 347.25
  Q 379.94 350.75 394.36 363.06
  C 396.69 365.05 401.17 367.63 403.82 371.19
  Q 404.11 371.59 404.57 371.77
  Q 410.17 373.99 413.63 378.89
  Q 414.47 380.08 417.06 381.24
  C 422.32 383.60 426.85 388.64 430.47 390.54
  C 433.81 392.29 436.87 394.86 439.96 394.75
  A 1.53 1.50 61.9 0 1 440.92 395.05
  Q 447.61 399.92 453.75 398.94
  Q 456.03 399.02 458.35 400.28
  Q 458.80 400.52 458.68 401.02
  C 453.36 422.62 438.14 449.35 416.57 456.31
  C 386.06 466.14 364.67 433.92 364.17 407.56
  Q 363.75 385.79 363.23 364.02
  C 363.09 358.02 363.53 349.42 367.99 344.89
  Z
  M 397.94 427.06
  C 408.64 438.83 420.99 424.47 424.40 414.65
  A 2.01 2.01 0.0 0 0 423.65 412.34
  L 390.92 389.55
  A 0.58 0.58 0.0 0 0 390.01 390.02
  C 389.96 402.45 389.11 417.35 397.94 427.06
  Z"
/>
<path fill="#15f2ff" d="
  M 585.87 606.99
  Q 567.12 602.94 545.00 602.05
  Q 489.25 599.81 437.25 603.76
  Q 429.07 604.38 417.68 606.82
  L 419.35 589.58
  Q 419.39 589.17 419.80 589.19
  Q 431.03 589.59 452.94 589.13
  Q 510.66 587.93 583.55 590.06
  Q 584.04 590.08 584.09 590.56
  L 585.87 606.99
  Z"
/>
<path fill="#030711" d="
  M 715.25 668.54
  L 405.25 668.13
  Q 404.84 668.13 404.54 668.39
  Q 404.33 668.57 404.00 668.57
  Q 344.77 668.56 285.48 668.42
  Q 286.68 667.13 288.74 667.29
  Q 289.73 667.37 290.27 666.58
  Q 290.55 666.17 291.05 666.16
  C 319.07 665.58 347.93 664.70 375.90 666.17
  C 385.45 666.67 393.88 665.06 402.55 666.31
  C 411.82 667.64 421.71 666.07 429.07 665.88
  C 443.54 665.52 459.69 666.12 472.44 666.06
  C 502.44 665.93 532.48 666.15 562.47 665.81
  C 567.41 665.75 576.14 666.41 583.69 665.88
  Q 588.75 665.53 604.93 665.83
  Q 605.44 665.84 605.89 665.59
  Q 606.51 665.25 607.00 665.24
  Q 618.47 665.00 629.84 665.42
  Q 635.13 665.62 640.41 665.40
  Q 649.58 665.02 666.32 665.16
  C 674.92 665.24 684.68 664.40 693.11 665.63
  C 699.49 666.57 705.64 666.17 712.01 666.59
  Q 713.71 666.70 715.22 667.54
  Q 715.54 667.71 715.25 668.54
  Z"
/>
<path fill="#6c7158" d="
  M 683.04 733.51
  L 682.05 731.83
  Q 699.42 732.44 713.31 730.58
  Q 730.18 728.32 739.09 715.00
  C 747.74 702.06 747.64 684.92 734.16 675.12
  Q 728.72 671.16 721.37 668.83
  Q 744.72 664.42 756.67 684.07
  C 767.19 701.38 762.10 723.75 748.44 737.59
  C 732.65 753.58 713.38 751.97 692.38 752.05
  A 1.41 1.41 0.0 0 1 690.97 750.62
  Q 691.05 744.23 688.09 738.19
  Q 686.44 734.84 683.04 733.51
  Z"
/>
<path fill="#fdefc8" d="
  M 285.48 668.42
  Q 344.77 668.56 404.00 668.57
  Q 404.33 668.57 404.54 668.39
  Q 404.84 668.13 405.25 668.13
  L 715.25 668.54
  L 721.37 668.83
  Q 728.72 671.16 734.16 675.12
  C 747.64 684.92 747.74 702.06 739.09 715.00
  Q 730.18 728.32 713.31 730.58
  Q 699.42 732.44 682.05 731.83
  Q 677.38 730.74 672.50 730.74
  Q 504.25 730.75 336.00 730.75
  L 323.02 732.00
  C 308.19 730.55 292.89 731.28 277.99 731.23
  C 265.13 731.18 257.94 731.44 249.21 724.03
  Q 238.44 714.89 235.10 700.20
  Q 235.59 689.59 242.06 681.56
  C 253.56 667.30 268.76 667.59 285.48 668.42
  Z"
/>
<path fill="#6c7158" d="
  M 235.10 700.20
  Q 238.44 714.89 249.21 724.03
  C 257.94 731.44 265.13 731.18 277.99 731.23
  C 292.89 731.28 308.19 730.55 323.02 732.00
  Q 314.13 740.04 318.21 750.86
  Q 318.38 751.32 317.89 751.34
  Q 301.32 751.93 284.70 751.40
  C 272.16 750.99 262.70 748.48 252.52 742.41
  Q 240.68 732.94 236.79 720.41
  Q 232.74 709.91 235.10 700.20
  Z"
/>
<path fill="#030711" d="
  M 236.79 720.41
  Q 240.68 732.94 252.52 742.41
  Q 239.52 737.10 235.68 722.64
  Q 235.47 721.86 235.66 721.33
  Q 235.98 720.47 236.79 720.41
  Z"
/>
<path fill="#030711" d="
  M 336.00 730.75
  Q 504.25 730.75 672.50 730.74
  Q 677.38 730.74 682.05 731.83
  L 683.04 733.51
  Q 679.90 734.28 676.63 733.67
  Q 672.74 732.94 671.28 732.91
  C 662.83 732.78 654.23 732.18 645.81 732.99
  C 643.04 733.26 639.88 732.78 637.64 732.77
  Q 618.76 732.73 599.86 732.75
  Q 598.59 732.76 597.16 733.05
  C 591.60 734.21 583.07 733.37 573.18 733.09
  Q 534.26 731.98 513.25 732.81
  Q 497.72 733.43 485.94 733.14
  C 459.05 732.49 432.14 732.50 405.25 732.45
  C 403.52 732.45 401.84 731.97 400.24 732.01
  Q 368.65 732.79 337.06 732.63
  Q 336.57 732.63 336.23 732.28
  Q 335.44 731.44 336.00 730.75
  Z"
/>
<path fill="#014567" d="
  M 645.51 757.32
  Q 646.22 757.34 646.23 758.05
  Q 646.47 792.60 645.72 827.68
  Q 645.53 836.22 643.90 842.68
  C 638.69 863.36 613.88 862.77 597.69 862.80
  Q 492.18 863.02 386.67 862.99
  C 375.04 862.99 366.93 863.11 357.19 855.05
  C 347.56 847.08 346.28 837.00 346.18 824.94
  Q 345.93 792.75 346.04 758.10
  Q 346.04 757.21 346.93 757.20
  C 416.58 756.37 486.28 756.65 555.94 756.79
  C 585.79 756.85 615.66 756.48 645.51 757.32
  Z
  M 524.22 824.17
  C 524.36 830.03 527.78 836.06 534.07 836.92
  Q 546.62 838.64 559.18 837.59
  C 568.63 836.80 573.80 834.08 573.92 824.01
  Q 574.08 811.24 574.24 798.49
  C 574.35 788.93 573.10 781.59 564.34 777.62
  Q 560.60 775.92 553.79 775.91
  C 539.90 775.89 524.25 775.76 524.05 794.27
  Q 523.88 809.21 524.22 824.17
  Z
  M 440.89 837.72
  L 467.37 837.82
  A 12.04 12.04 0.0 0 0 479.45 825.82
  L 479.56 796.80
  A 20.66 20.02 -89.8 0 0 459.61 776.07
  L 449.09 776.03
  A 20.66 20.02 -89.8 0 0 429.00 796.62
  L 428.89 825.64
  A 12.04 12.04 0.0 0 0 440.89 837.72
  Z"
/>
<path fill="#000f30" d="
  M 534.07 836.92
  C 527.78 836.06 524.36 830.03 524.22 824.17
  Q 523.88 809.21 524.05 794.27
  C 524.25 775.76 539.90 775.89 553.79 775.91
  Q 560.60 775.92 564.34 777.62
  C 573.10 781.59 574.35 788.93 574.24 798.49
  Q 574.08 811.24 573.92 824.01
  C 573.80 834.08 568.63 836.80 559.18 837.59
  Q 546.62 838.64 534.07 836.92
  Z"
/>
<path fill="#000f30" d="
  M 440.89 837.72
  A 12.04 12.04 0.0 0 1 428.89 825.64
  L 429.00 796.62
  A 20.66 20.02 -89.8 0 1 449.09 776.03
  L 459.61 776.07
  A 20.66 20.02 -89.8 0 1 479.56 796.80
  L 479.45 825.82
  A 12.04 12.04 0.0 0 1 467.37 837.82
  L 440.89 837.72
  Z"
/>
</svg>
