<?xml version="1.0" encoding="UTF-8" standalone="no"?>
<!DOCTYPE svg PUBLIC "-//W3C//DTD SVG 1.1//EN" "http://www.w3.org/Graphics/SVG/1.1/DTD/svg11.dtd">
<svg xmlns="http://www.w3.org/2000/svg" version="1.1" viewBox="0.00 0.00 668.00 692.00">
<g stroke-width="2.00" fill="none" stroke-linecap="butt">
<path stroke="#7e8599" vector-effect="non-scaling-stroke" d="
  M 258.97 185.71
  Q 259.22 120.83 259.25 55.97
  C 259.26 44.98 258.43 37.09 251.81 29.46
  Q 241.42 17.49 224.75 17.48
  Q 171.84 17.47 118.94 17.49
  C 104.24 17.50 91.64 28.57 88.44 42.30
  Q 87.48 46.42 87.49 62.23
  Q 87.52 103.46 87.43 148.45
  A 0.30 0.30 0.0 0 1 87.12 148.75
  C 77.34 148.73 64.38 147.54 55.39 149.70
  C 38.70 153.72 27.09 167.56 24.98 184.25
  C 24.15 190.85 24.98 201.92 24.99 208.92
  Q 25.08 285.43 24.89 361.93
  C 24.84 385.20 25.15 408.48 25.14 431.76
  C 25.12 448.04 33.61 457.48 46.91 465.35
  Q 84.13 487.38 121.56 509.02
  Q 127.37 512.38 132.21 517.05
  Q 135.27 519.99 135.43 525.24
  C 136.39 557.35 135.71 589.58 135.77 621.72
  Q 135.79 629.76 137.10 634.52
  C 141.40 650.08 154.12 662.41 169.71 666.56
  Q 175.16 668.02 186.42 668.06
  C 285.26 668.41 384.10 668.21 482.94 668.13
  C 511.16 668.10 533.99 648.19 534.28 619.25
  Q 534.74 572.72 534.43 526.19
  C 534.39 519.48 537.37 515.72 542.83 512.34
  Q 582.27 487.95 621.96 463.99
  C 632.00 457.93 640.39 448.09 641.25 436.15
  C 642.13 424.05 641.51 409.27 641.51 400.05
  Q 641.48 300.24 641.52 200.43
  C 641.52 188.52 642.84 176.81 635.26 166.26
  C 626.93 154.69 615.14 148.55 600.94 148.74
  Q 589.92 148.89 578.82 149.06
  Q 578.28 149.07 578.28 148.53
  Q 578.23 99.89 578.13 51.25
  C 578.10 35.40 572.33 23.84 557.46 17.37
  C 551.72 14.88 545.12 14.63 538.75 14.68
  Q 489.75 15.08 440.75 14.56
  Q 429.12 14.43 420.34 20.36
  C 409.99 27.35 406.43 37.27 406.12 49.39
  C 405.47 75.44 405.84 101.50 405.66 127.57
  Q 405.45 156.77 406.37 185.07
  Q 406.41 186.24 405.23 186.24
  L 259.51 186.25
  Q 258.96 186.25 258.97 185.71"
/>
<path stroke="#7c8495" vector-effect="non-scaling-stroke" d="
  M 153.81 52.54
  Q 144.61 53.18 135.00 53.11
  C 124.15 53.03 121.47 58.59 121.49 68.90
  Q 121.51 75.95 121.51 83.06"
/>
<path stroke="#7e827f" vector-effect="non-scaling-stroke" d="
  M 121.51 83.06
  L 121.72 147.88
  Q 121.72 148.46 122.30 148.46
  L 125.75 148.48"
/>
<path stroke="#7e7a70" vector-effect="non-scaling-stroke" d="
  M 125.75 148.48
  L 154.97 148.70
  Q 155.48 148.70 155.49 148.18
  L 155.53 135.00"
/>
<path stroke="#7e8599" vector-effect="non-scaling-stroke" d="
  M 155.53 135.00
  L 155.69 105.96
  Q 155.69 105.33 156.32 105.33
  L 181.68 105.48
  Q 182.27 105.48 182.27 106.07
  L 182.37 134.84"
/>
<path stroke="#7e7a70" vector-effect="non-scaling-stroke" d="
  M 182.37 134.84
  L 182.78 147.71
  Q 182.80 148.25 183.34 148.26
  L 212.27 148.68"
/>
<path stroke="#7c8495" vector-effect="non-scaling-stroke" d="
  M 212.27 148.68
  L 224.00 148.72
  Q 224.52 148.72 224.52 148.21
  Q 224.39 106.12 224.79 64.02
  C 224.86 56.94 221.16 52.35 213.76 52.66
  Q 201.40 53.17 189.02 53.07"
/>
<path stroke="#062442" vector-effect="non-scaling-stroke" d="
  M 189.02 53.07
  Q 186.97 53.26 186.70 52.37
  Q 186.59 52.01 186.21 51.98
  Q 169.92 50.77 153.81 52.54"
/>
<path stroke="#829ba4" vector-effect="non-scaling-stroke" d="
  M 189.02 53.07
  Q 171.61 53.53 153.81 52.54"
/>
<path stroke="#faf1d2" vector-effect="non-scaling-stroke" d="
  M 212.27 148.68
  L 210.58 148.18
  A 0.68 0.68 0.0 0 1 210.74 146.85
  L 218.98 146.41
  A 2.96 2.96 0.0 0 0 221.77 143.21
  Q 221.50 139.95 222.67 136.96
  Q 223.35 135.26 221.51 135.17
  L 202.84 134.29
  Q 202.30 134.26 202.30 133.73
  Q 202.21 106.74 201.80 79.75
  C 201.75 76.65 202.03 72.85 200.58 70.24
  C 198.04 65.68 190.52 65.05 186.25 65.17
  C 174.13 65.53 161.92 65.80 149.81 65.17
  C 137.80 64.54 134.94 66.53 129.64 76.90"
/>
<path stroke="#faf9e1" vector-effect="non-scaling-stroke" d="
  M 129.64 76.90
  L 127.51 81.44
  A 1.05 1.02 6.5 0 1 126.76 82.02
  L 121.51 83.06"
/>
<path stroke="#fbefbc" vector-effect="non-scaling-stroke" d="
  M 132.61 134.78
  L 125.39 135.05
  A 2.47 2.47 0.0 0 0 123.09 138.13
  L 125.75 148.48"
/>
<path stroke="#fcf2d6" vector-effect="non-scaling-stroke" d="
  M 182.37 134.84
  L 196.76 134.01
  Q 197.28 133.98 197.26 133.46
  C 196.52 115.71 197.57 96.70 196.22 78.22
  C 195.79 72.47 191.15 71.45 186.25 71.42
  C 175.31 71.34 164.38 71.25 153.45 70.96
  C 136.41 70.50 131.03 72.74 132.10 91.06"
/>
<path stroke="#fbefbc" vector-effect="non-scaling-stroke" d="
  M 132.10 91.06
  Q 131.49 92.21 129.05 90.87
  A 1.64 1.64 0.0 0 1 128.21 89.24
  L 129.64 76.90"
/>
<path stroke="#fcf2d6" vector-effect="non-scaling-stroke" d="
  M 155.53 135.00
  L 132.61 134.78"
/>
<path stroke="#fcfae5" vector-effect="non-scaling-stroke" d="
  M 132.61 134.78
  L 132.10 91.06"
/>
<path stroke="#7f858a" vector-effect="non-scaling-stroke" d="
  M 441.07 59.74
  L 441.00 147.45
  A 1.58 1.58 0.0 0 0 442.60 149.04
  L 477.54 148.68
  Q 478.14 148.67 478.15 148.06
  L 478.19 134.78"
/>
<path stroke="#7e8599" vector-effect="non-scaling-stroke" d="
  M 478.19 134.78
  L 478.49 106.06
  Q 478.49 105.48 479.08 105.48
  L 503.72 105.43
  Q 504.41 105.43 504.41 106.12
  L 504.74 136.20"
/>
<path stroke="#7e7a70" vector-effect="non-scaling-stroke" d="
  M 504.74 136.20
  L 504.76 147.77
  A 0.98 0.98 0.0 0 0 505.74 148.75
  L 543.30 148.75
  Q 543.95 148.75 543.95 148.11
  L 543.98 143.25"
/>
<path stroke="#7c8495" vector-effect="non-scaling-stroke" d="
  M 543.98 143.25
  Q 543.91 88.97 544.22 63.01
  C 544.38 49.64 534.08 51.74 525.22 51.74
  Q 489.57 51.76 453.91 51.74
  C 447.05 51.74 443.67 53.59 441.07 59.74"
/>
<path stroke="#faf1d2" vector-effect="non-scaling-stroke" d="
  M 543.98 143.25
  Q 541.77 141.91 542.91 136.98
  A 1.49 1.48 -81.8 0 0 541.55 135.16
  L 525.50 134.23
  Q 525.12 134.21 525.11 133.82
  Q 524.48 111.19 525.11 88.56
  C 525.32 81.17 526.88 63.57 515.00 63.64
  Q 495.82 63.76 476.67 63.79
  C 462.81 63.82 460.31 69.49 459.93 82.44
  Q 459.18 108.10 459.69 133.84
  Q 459.70 134.37 459.17 134.39
  L 445.61 134.75"
/>
<path stroke="#fbfcec" vector-effect="non-scaling-stroke" d="
  M 445.61 134.75
  Q 446.71 126.23 446.42 117.52
  C 445.95 103.48 445.98 89.61 446.24 75.56
  Q 446.36 69.27 446.92 66.22
  Q 446.95 66.03 447.03 65.26
  Q 447.10 64.62 447.79 64.19
  Q 448.22 63.93 448.01 63.46
  Q 447.09 61.46 447.81 59.31
  A 0.54 0.54 0.0 0 0 447.17 58.62
  L 444.43 59.34
  Q 443.98 59.45 443.59 59.21
  Q 442.55 58.56 441.07 59.74"
/>
<path stroke="#fcf2d6" vector-effect="non-scaling-stroke" d="
  M 504.74 136.20
  Q 511.77 134.25 519.69 134.53
  Q 520.29 134.55 520.29 133.94
  Q 520.53 107.34 520.85 80.75
  C 520.92 75.03 517.83 70.33 511.76 70.45
  C 497.73 70.73 486.21 70.99 475.74 70.49
  C 468.89 70.16 464.58 73.18 464.34 80.52
  Q 463.47 106.53 463.17 132.57
  Q 463.16 133.03 462.76 133.24
  L 461.95 133.66
  A 0.34 0.34 0.0 0 0 462.13 134.31
  C 465.86 134.10 474.64 133.25 476.58 134.68"
/>
<path stroke="#fcf1c6" vector-effect="non-scaling-stroke" d="
  M 445.61 134.75
  Q 444.60 134.65 444.03 134.80
  Q 443.43 134.95 443.36 135.90
  Q 443.02 140.59 443.74 145.16
  A 1.49 1.47 84.1 0 0 445.26 146.41
  Q 451.79 146.12 458.74 146.14
  C 460.49 146.14 461.76 146.89 463.56 146.78
  Q 469.09 146.46 474.77 146.15
  Q 475.32 146.12 475.38 145.58
  L 476.58 134.68"
/>
<path stroke="#fdfdf0" vector-effect="non-scaling-stroke" d="
  M 476.58 134.68
  Q 477.54 134.92 478.19 134.78"
/>
<path stroke="#223e59" vector-effect="non-scaling-stroke" d="
  M 60.70 270.49
  Q 59.42 281.82 60.42 293.26"
/>
<path stroke="#7f858a" vector-effect="non-scaling-stroke" d="
  M 60.42 293.26
  L 60.49 315.45"
/>
<path stroke="#223e59" vector-effect="non-scaling-stroke" d="
  M 60.49 315.45
  C 60.28 319.82 60.64 323.41 60.02 328.14
  Q 59.54 331.75 60.74 335.16"
/>
<path stroke="#7f858a" vector-effect="non-scaling-stroke" d="
  M 60.74 335.16
  L 60.71 364.74"
/>
<path stroke="#223e59" vector-effect="non-scaling-stroke" d="
  M 60.71 364.74
  Q 58.73 376.46 60.96 387.80"
/>
<path stroke="#7f858a" vector-effect="non-scaling-stroke" d="
  M 60.96 387.80
  Q 60.73 402.52 60.79 417.33
  C 60.81 423.59 60.78 433.76 70.24 432.89"
/>
<path stroke="#223e59" vector-effect="non-scaling-stroke" d="
  M 70.24 432.89
  C 100.63 449.64 130.78 466.74 161.06 483.70
  Q 166.62 486.82 174.75 492.04"
/>
<path stroke="#001c3c" vector-effect="non-scaling-stroke" d="
  M 174.75 492.04
  L 172.20 493.36
  Q 171.76 493.59 171.69 494.07
  Q 169.69 506.31 171.55 518.20"
/>
<path stroke="#5b7486" vector-effect="non-scaling-stroke" d="
  M 171.55 518.20
  L 171.45 600.69"
/>
<path stroke="#223e59" vector-effect="non-scaling-stroke" d="
  M 171.45 600.69
  Q 171.11 610.39 171.28 620.01
  C 171.37 625.69 176.34 626.19 180.50 626.25
  Q 222.64 626.84 280.81 626.35
  C 328.15 625.95 393.80 626.50 454.89 626.07"
/>
<path stroke="#062442" vector-effect="non-scaling-stroke" d="
  M 454.89 626.07
  L 497.87 625.87
  A 1.20 1.20 0.0 0 0 499.06 624.67
  L 499.03 610.79"
/>
<path stroke="#001c3c" vector-effect="non-scaling-stroke" d="
  M 499.03 610.79
  L 499.23 488.90"
/>
<path stroke="#062442" vector-effect="non-scaling-stroke" d="
  M 499.23 488.90
  Q 507.35 483.19 514.69 478.69
  Q 543.43 461.03 577.26 442.06"
/>
<path stroke="#001c3c" vector-effect="non-scaling-stroke" d="
  M 577.26 442.06
  C 584.82 437.50 594.21 433.16 602.79 431.69
  Q 604.38 431.41 604.42 429.69
  C 606.05 352.86 605.43 275.84 604.58 199.01"
/>
<path stroke="#223e59" vector-effect="non-scaling-stroke" d="
  M 604.58 199.01
  L 604.01 185.71
  A 1.63 1.62 -1.1 0 0 602.38 184.15
  L 440.54 183.92
  A 0.88 0.88 0.0 0 0 439.66 184.83
  Q 440.03 197.34 439.50 210.33
  C 439.02 222.07 433.46 223.67 422.45 223.34
  Q 414.10 223.10 405.72 223.36"
/>
<path stroke="#7f858a" vector-effect="non-scaling-stroke" d="
  M 405.72 223.36
  C 404.57 222.78 403.32 222.26 401.94 222.28
  Q 338.47 223.25 275.00 222.41
  Q 272.87 222.39 270.36 223.99"
/>
<path stroke="#223e59" vector-effect="non-scaling-stroke" d="
  M 270.36 223.99
  Q 256.59 223.07 237.24 223.31
  C 227.93 223.43 227.22 217.01 227.28 209.12
  Q 227.37 196.83 226.96 184.51
  Q 226.94 184.01 226.45 184.05
  L 218.80 184.64
  Q 218.37 184.68 217.98 184.49
  Q 213.15 182.10 207.86 182.71
  C 201.65 183.43 196.91 183.49 191.24 183.69"
/>
<path stroke="#7f858a" vector-effect="non-scaling-stroke" d="
  M 191.24 183.69
  Q 160.27 183.85 129.29 183.67
  C 117.05 183.60 102.72 183.85 89.41 183.73
  C 86.99 183.71 84.46 184.76 81.80 184.29"
/>
<path stroke="#173451" vector-effect="non-scaling-stroke" d="
  M 81.80 184.29
  Q 76.25 185.63 72.27 184.07"
/>
<path stroke="#7f858a" vector-effect="non-scaling-stroke" d="
  M 72.27 184.07
  Q 70.70 182.74 68.79 182.27
  Q 68.27 182.14 67.80 182.40
  C 60.63 186.32 61.42 191.36 61.25 200.01
  Q 60.53 235.25 60.70 270.49"
/>
<path stroke="#95aba8" vector-effect="non-scaling-stroke" d="
  M 72.27 184.07
  C 75.30 186.50 71.87 190.30 71.88 193.69
  Q 72.05 229.07 71.82 264.44
  C 71.70 283.16 72.26 302.28 71.70 321.26"
/>
<path stroke="#a1b6b0" vector-effect="non-scaling-stroke" d="
  M 71.70 321.26
  Q 71.46 375.62 71.50 430.00
  Q 71.50 431.35 70.24 432.89"
/>
<path stroke="#a1b6b0" vector-effect="non-scaling-stroke" d="
  M 60.96 387.80
  Q 61.66 376.23 60.71 364.74"
/>
<path stroke="#a1b6b0" vector-effect="non-scaling-stroke" d="
  M 60.74 335.16
  L 60.49 315.45"
/>
<path stroke="#a1b6b0" vector-effect="non-scaling-stroke" d="
  M 60.42 293.26
  C 60.51 288.76 61.59 283.44 61.03 278.81
  C 60.67 275.80 60.82 273.32 60.70 270.49"
/>
<path stroke="#a1b6b0" vector-effect="non-scaling-stroke" d="
  M 270.36 223.99
  C 268.61 226.39 269.55 232.50 273.75 232.47
  C 276.53 232.45 280.45 232.00 283.75 232.00
  C 318.21 232.07 352.72 232.23 387.17 231.69
  C 391.52 231.63 396.67 232.74 400.45 232.63
  C 405.42 232.49 406.70 227.38 405.72 223.36"
/>
<path stroke="#224d62" vector-effect="non-scaling-stroke" d="
  M 604.58 199.01
  L 573.38 199.01"
/>
<path stroke="#285568" vector-effect="non-scaling-stroke" d="
  M 573.38 199.01
  C 569.99 199.00 564.01 197.75 562.78 201.51
  Q 561.27 206.13 561.13 211.00
  C 560.28 239.37 560.39 267.87 560.77 296.27"
/>
<path stroke="#396577" vector-effect="non-scaling-stroke" d="
  M 560.77 296.27
  Q 559.34 296.55 558.26 295.60"
/>
<path stroke="#223e59" vector-effect="non-scaling-stroke" d="
  M 558.26 295.60
  C 558.63 278.74 536.54 270.70 523.13 271.74
  C 515.60 272.32 507.74 275.55 500.78 279.01
  Q 438.94 309.74 376.60 339.50
  C 368.70 343.27 365.22 340.26 364.69 331.93
  Q 364.15 323.47 364.08 315.00
  C 364.01 305.99 352.73 303.50 347.74 310.71
  C 344.84 314.90 344.98 318.29 344.65 324.57
  Q 344.04 336.06 344.47 347.19"
/>
<path stroke="#285568" vector-effect="non-scaling-stroke" d="
  M 344.47 347.19
  Q 349.27 363.00 365.53 368.45
  C 369.08 369.64 374.37 371.84 378.06 370.83"
/>
<path stroke="#223e59" vector-effect="non-scaling-stroke" d="
  M 378.06 370.83
  L 392.69 374.79"
/>
<path stroke="#9caba5" vector-effect="non-scaling-stroke" d="
  M 392.69 374.79
  Q 380.62 377.55 368.93 380.05
  C 367.21 380.42 366.79 381.34 367.12 382.97"
/>
<path stroke="#223e59" vector-effect="non-scaling-stroke" d="
  M 367.12 382.97
  C 363.06 384.87 350.58 390.77 357.08 397.01"
/>
<path stroke="#285568" vector-effect="non-scaling-stroke" d="
  M 357.08 397.01
  Q 357.01 397.61 355.92 397.82"
/>
<path stroke="#223e59" vector-effect="non-scaling-stroke" d="
  M 355.92 397.82
  Q 352.34 393.37 351.19 392.07
  C 340.81 380.28 324.91 381.86 316.90 395.30
  C 313.86 400.40 309.16 402.66 311.03 409.21
  Q 311.56 411.08 313.77 410.58
  C 319.74 409.21 325.86 406.97 331.53 406.45
  C 341.85 405.51 349.84 407.53 359.52 409.27
  A 0.57 0.57 0.0 0 0 360.19 408.63
  L 359.33 402.32"
/>
<path stroke="#285568" vector-effect="non-scaling-stroke" d="
  M 359.33 402.32
  Q 365.43 410.60 373.32 413.95
  C 389.42 420.80 407.78 422.42 425.34 425.29"
/>
<path stroke="#396577" vector-effect="non-scaling-stroke" d="
  M 425.34 425.29
  L 428.17 425.93
  A 0.68 0.68 0.0 0 1 428.69 426.47
  L 429.02 428.25
  Q 429.12 428.77 429.61 428.97
  C 444.34 435.09 462.29 434.30 477.06 429.16
  C 487.24 425.62 499.58 418.29 508.94 411.92
  C 524.48 401.35 534.91 386.74 543.83 370.18
  A 0.67 0.67 0.0 0 0 543.24 369.19
  Q 539.47 369.17 535.83 370.10
  C 532.49 370.96 530.80 373.85 529.02 376.54
  A 0.76 0.76 0.0 0 1 527.64 376.26
  L 527.35 374.65"
/>
<path stroke="#223e59" vector-effect="non-scaling-stroke" d="
  M 527.35 374.65
  C 541.47 358.26 546.38 334.32 545.42 313.26"
/>
<path stroke="#396577" vector-effect="non-scaling-stroke" d="
  M 545.42 313.26
  L 545.51 312.31
  Q 545.55 311.85 546.00 311.86
  L 560.73 312.18"
/>
<path stroke="#285568" vector-effect="non-scaling-stroke" d="
  M 560.73 312.18
  Q 560.90 366.17 560.74 420.00
  C 560.72 425.67 561.34 429.67 566.13 432.48
  A 0.76 0.75 41.0 0 1 566.22 433.72
  C 560.40 438.36 554.88 442.10 547.91 445.90
  Q 520.08 461.04 493.18 477.75
  C 487.22 481.45 475.17 488.58 471.91 496.44"
/>
<path stroke="#223e59" vector-effect="non-scaling-stroke" d="
  M 471.91 496.44
  C 453.34 460.74 420.38 436.02 382.25 424.50
  C 361.66 418.28 337.67 417.76 314.96 420.47
  C 291.32 423.29 270.85 431.64 250.83 444.24
  C 225.53 460.16 209.60 483.86 197.98 511.01"
/>
<path stroke="#224d62" vector-effect="non-scaling-stroke" d="
  M 197.98 511.01
  Q 187.86 499.85 174.75 492.04"
/>
<path stroke="#396577" vector-effect="non-scaling-stroke" d="
  M 71.70 321.26
  L 72.43 321.08
  Q 73.01 320.93 73.05 320.34
  L 73.57 312.97
  A 0.99 0.98 -3.9 0 1 74.36 312.07
  Q 79.12 311.13 80.95 308.67"
/>
<path stroke="#a1b6b0" vector-effect="non-scaling-stroke" d="
  M 80.95 308.67
  Q 84.69 313.41 88.74 312.27
  C 91.72 311.42 93.30 309.08 93.27 305.84
  Q 93.04 278.97 93.76 252.11
  C 93.90 246.79 92.39 243.31 86.76 242.97"
/>
<path stroke="#396577" vector-effect="non-scaling-stroke" d="
  M 86.76 242.97
  Q 86.32 239.32 87.30 236.64"
/>
<path stroke="#a1b6b0" vector-effect="non-scaling-stroke" d="
  M 87.30 236.64
  C 91.03 236.02 93.98 234.63 93.84 230.98
  Q 93.19 213.51 92.98 195.90
  A 0.62 0.62 0.0 0 1 93.60 195.28
  C 131.00 195.11 169.99 195.30 211.94 194.89
  Q 214.79 194.86 217.04 194.02
  A 1.06 1.05 87.3 0 0 217.69 193.30
  C 218.76 189.20 218.46 183.65 212.76 183.74
  Q 206.48 183.84 191.24 183.69"
/>
<path stroke="#95aba8" vector-effect="non-scaling-stroke" d="
  M 86.76 242.97
  C 82.57 242.98 80.74 244.83 80.73 249.10
  Q 80.64 278.91 80.95 308.67"
/>
<path stroke="#001c3c" vector-effect="non-scaling-stroke" d="
  M 477.98 510.57
  Q 484.53 529.87 489.53 550.12
  Q 491.04 556.24 491.40 562.55
  Q 492.69 584.82 492.06 607.36"
/>
<path stroke="#062442" vector-effect="non-scaling-stroke" d="
  M 492.06 607.36
  Q 492.04 608.47 490.25 608.47
  C 476.67 608.53 463.09 608.65 449.52 608.26
  Q 443.25 608.08 436.95 608.86"
/>
<path stroke="#223e59" vector-effect="non-scaling-stroke" d="
  M 436.95 608.86
  C 433.99 609.05 430.96 609.35 428.01 609.33
  Q 386.13 608.96 344.25 609.58
  C 306.48 610.13 268.62 609.49 230.83 609.47
  C 224.81 609.46 218.78 609.08 212.76 608.79
  C 210.24 608.66 207.49 609.20 204.73 609.05
  C 195.28 608.56 185.83 608.77 176.32 608.73
  A 1.74 1.72 86.4 0 1 174.61 607.21
  L 173.77 600.53"
/>
<path stroke="#5b7486" vector-effect="non-scaling-stroke" d="
  M 173.77 600.53
  L 173.53 559.41"
/>
<path stroke="#001c3c" vector-effect="non-scaling-stroke" d="
  M 173.53 559.41
  Q 178.08 555.33 179.41 551.70
  C 183.95 539.40 190.82 527.39 196.56 515.57
  Q 197.64 513.36 197.98 511.01"
/>
<path stroke="#1d4b60" vector-effect="non-scaling-stroke" d="
  M 425.34 425.29
  Q 445.20 427.63 464.99 423.20
  Q 472.25 421.57 482.26 416.00
  C 501.48 405.30 514.83 394.36 526.09 376.66"
/>
<path stroke="#06334a" vector-effect="non-scaling-stroke" d="
  M 573.38 199.01
  Q 574.93 218.29 574.59 237.76
  C 574.10 265.74 574.25 293.70 574.38 321.69
  C 574.50 346.60 574.10 371.48 574.49 396.40
  C 574.57 401.32 573.95 407.33 574.14 412.83
  Q 574.15 412.93 574.25 412.97
  Q 574.38 413.01 574.46 413.11
  Q 574.55 413.20 574.56 413.40
  Q 574.87 418.04 575.79 422.60
  C 576.42 425.70 575.68 428.95 578.65 432.05
  Q 579.01 432.42 579.10 432.92
  Q 579.98 437.85 577.26 442.06"
/>
<path stroke="#06334a" vector-effect="non-scaling-stroke" d="
  M 499.23 488.90
  C 491.83 492.58 483.04 498.59 480.03 505.85
  Q 479.09 508.12 477.98 510.57"
/>
<path stroke="#062442" vector-effect="non-scaling-stroke" d="
  M 477.98 510.57
  L 471.91 496.44"
/>
<path stroke="#1d4b60" vector-effect="non-scaling-stroke" d="
  M 560.73 312.18
  L 560.77 296.27"
/>
<path stroke="#5b828f" vector-effect="non-scaling-stroke" d="
  M 173.53 559.41
  C 173.17 554.45 172.67 549.69 172.83 544.53
  Q 173.26 531.22 171.55 518.20"
/>
<path stroke="#062442" vector-effect="non-scaling-stroke" d="
  M 359.33 402.32
  L 355.92 397.82"
/>
<path stroke="#173451" vector-effect="non-scaling-stroke" d="
  M 558.26 295.60
  C 556.11 301.64 550.17 302.46 544.60 304.06
  Q 544.06 304.22 544.14 304.78
  L 545.42 313.26"
/>
<path stroke="#173451" vector-effect="non-scaling-stroke" d="
  M 527.35 374.65
  Q 526.28 375.57 526.09 376.66"
/>
<path stroke="#062442" vector-effect="non-scaling-stroke" d="
  M 526.09 376.66
  Q 522.57 378.73 520.31 382.00
  C 518.25 384.98 514.75 388.14 512.04 390.31
  C 496.66 402.61 478.44 412.05 458.99 415.65
  C 426.90 421.59 392.51 414.14 363.07 399.42
  Q 360.99 398.37 357.08 397.01"
/>
<path stroke="#7a7a7f" vector-effect="non-scaling-stroke" d="
  M 367.12 382.97
  L 379.39 389.15"
/>
<path stroke="#7c8495" vector-effect="non-scaling-stroke" d="
  M 379.39 389.15
  C 399.52 397.86 421.66 403.23 443.52 399.63
  Q 472.03 394.94 495.54 378.27
  Q 503.56 372.57 508.05 365.71"
/>
<path stroke="#7e7a70" vector-effect="non-scaling-stroke" d="
  M 508.05 365.71
  L 509.55 363.76"
/>
<path stroke="#7c8495" vector-effect="non-scaling-stroke" d="
  M 509.55 363.76
  Q 521.22 349.62 523.90 331.79"
/>
<path stroke="#7a7a7f" vector-effect="non-scaling-stroke" d="
  M 523.90 331.79
  Q 525.74 320.69 522.78 310.28
  Q 522.63 309.76 522.18 310.04
  Q 515.91 313.90 505.23 318.96
  Q 481.09 330.41 470.70 335.02
  Q 470.27 335.21 470.29 335.67
  Q 470.69 349.33 463.86 360.63"
/>
<path stroke="#7c8495" vector-effect="non-scaling-stroke" d="
  M 463.86 360.63
  C 461.53 364.01 459.58 367.33 456.47 369.89
  C 439.16 384.11 417.51 382.83 398.27 372.95"
/>
<path stroke="#223e59" vector-effect="non-scaling-stroke" d="
  M 398.27 372.95
  Q 397.09 371.84 396.62 372.60
  Q 396.23 373.25 395.75 373.77"
/>
<path stroke="#7a7a7f" vector-effect="non-scaling-stroke" d="
  M 395.75 373.77
  L 392.69 374.79"
/>
<path stroke="#062442" vector-effect="non-scaling-stroke" d="
  M 378.06 370.83
  Q 375.45 369.36 367.97 366.54
  C 358.27 362.89 352.14 355.05 344.47 347.19"
/>
<path stroke="#95aba8" vector-effect="non-scaling-stroke" d="
  M 87.30 236.64
  C 81.88 235.99 80.98 231.55 81.01 226.59
  Q 81.12 206.84 80.73 186.99
  Q 80.72 186.29 81.80 184.29"
/>
<path stroke="#06334a" vector-effect="non-scaling-stroke" d="
  M 499.03 610.79
  L 498.13 607.75
  Q 497.98 607.26 497.53 607.03
  Q 495.02 605.73 492.06 607.36"
/>
<path stroke="#7da5ac" vector-effect="non-scaling-stroke" d="
  M 173.77 600.53
  Q 174.45 601.39 171.45 600.69"
/>
<path stroke="#285568" vector-effect="non-scaling-stroke" d="
  M 436.95 608.86
  L 440.76 609.00
  A 0.78 0.78 0.0 0 1 441.46 609.51
  C 443.60 615.43 450.38 621.49 454.89 626.07"
/>
<path stroke="#9caba5" vector-effect="non-scaling-stroke" d="
  M 396.28 373.92
  Q 396.26 373.65 395.75 373.77"
/>
<path stroke="#f6f1e1" vector-effect="non-scaling-stroke" d="
  M 523.90 331.79
  Q 523.25 329.84 521.88 330.92
  C 517.68 334.22 509.63 336.09 504.98 338.29
  C 490.70 345.05 481.71 351.75 470.18 359.21
  C 468.07 360.58 467.21 363.41 463.86 360.63"
/>
<path stroke="#faf1d2" vector-effect="non-scaling-stroke" d="
  M 509.55 363.76
  C 503.32 359.91 478.16 369.39 471.62 371.44
  C 467.47 372.75 464.42 372.44 461.05 370.04
  A 1.86 1.85 44.1 0 0 458.88 370.07
  L 453.53 374.07
  A 1.33 1.33 0.0 0 0 453.41 376.10
  C 462.73 384.93 473.54 381.47 484.74 380.14
  C 490.05 379.51 493.45 377.80 497.30 374.54
  C 500.15 372.12 503.78 369.75 506.30 366.49
  Q 506.63 366.07 507.06 365.90
  Q 507.74 365.63 508.05 365.71"
/>
<path stroke="#f6f1e1" vector-effect="non-scaling-stroke" d="
  M 379.39 389.15
  Q 388.85 386.27 393.71 382.00
  Q 397.73 378.47 396.28 373.92"
/>
<path stroke="#9eb5bb" vector-effect="non-scaling-stroke" d="
  M 396.28 373.92
  Q 396.92 372.79 398.27 372.95"
/>
<path stroke="#285568" vector-effect="non-scaling-stroke" d="
  M 128.22 361.72
  C 126.07 366.37 131.92 376.59 134.51 380.00
  C 144.49 393.14 158.65 406.19 173.89 413.36
  C 192.15 421.95 213.85 427.18 233.93 424.15
  Q 251.01 421.57 268.19 414.59"
/>
<path stroke="#223e59" vector-effect="non-scaling-stroke" d="
  M 268.19 414.59
  Q 287.69 408.46 306.32 400.47
  Q 307.39 400.01 309.35 399.48
  C 312.59 398.60 317.75 392.44 315.69 389.01
  Q 311.74 382.44 303.64 382.35"
/>
<path stroke="#9caba5" vector-effect="non-scaling-stroke" d="
  M 303.64 382.35
  Q 296.04 377.91 288.70 374.14
  C 286.91 373.22 285.38 373.51 283.44 373.46"
/>
<path stroke="#223e59" vector-effect="non-scaling-stroke" d="
  M 283.44 373.46
  Q 285.49 371.89 287.72 371.51"
/>
<path stroke="#396577" vector-effect="non-scaling-stroke" d="
  M 287.72 371.51
  C 300.20 371.68 314.73 367.70 319.36 354.69"
/>
<path stroke="#223e59" vector-effect="non-scaling-stroke" d="
  M 319.36 354.69
  C 325.26 345.28 323.76 330.38 322.99 319.04
  C 322.68 314.36 321.58 310.84 317.91 308.27
  C 313.66 305.28 307.66 305.55 305.21 310.63
  Q 304.28 312.56 304.18 316.55
  Q 303.94 325.39 304.20 334.28
  C 304.60 347.86 289.18 340.13 281.75 336.49
  Q 223.09 307.73 164.58 278.66
  Q 158.24 275.52 152.94 273.60
  C 139.66 268.81 124.00 272.18 115.15 283.65
  C 108.40 292.40 114.22 298.83 121.86 303.47
  Q 122.36 303.78 122.29 304.36
  C 120.06 323.83 121.56 342.66 128.22 361.72"
/>
<path stroke="#173451" vector-effect="non-scaling-stroke" d="
  M 319.36 354.69
  C 309.74 363.89 299.20 366.96 287.72 371.51"
/>
<path stroke="#7a7a7f" vector-effect="non-scaling-stroke" d="
  M 283.44 373.46
  L 275.21 374.33"
/>
<path stroke="#7c8495" vector-effect="non-scaling-stroke" d="
  M 275.21 374.33
  L 266.94 372.75
  Q 266.46 372.66 266.04 372.91
  C 249.25 382.76 221.70 384.55 208.64 367.58
  C 202.53 359.65 200.86 347.58 201.09 337.51
  Q 201.10 337.02 200.66 336.81
  L 167.81 321.60"
/>
<path stroke="#5b7486" vector-effect="non-scaling-stroke" d="
  M 167.81 321.60
  L 148.75 312.37"
/>
<path stroke="#7c8495" vector-effect="non-scaling-stroke" d="
  M 148.75 312.37
  L 145.34 309.78
  A 0.31 0.31 0.0 0 0 144.86 309.92
  C 138.41 328.16 144.18 349.31 156.06 364.09"
/>
<path stroke="#7e7a70" vector-effect="non-scaling-stroke" d="
  M 156.06 364.09
  Q 161.67 371.89 169.19 378.60"
/>
<path stroke="#7c8495" vector-effect="non-scaling-stroke" d="
  M 169.19 378.60
  C 194.94 397.44 227.97 405.56 259.49 398.72
  C 265.03 397.52 271.03 396.75 276.31 394.73
  C 284.00 391.79 291.37 389.28 298.29 384.86"
/>
<path stroke="#7a7a7f" vector-effect="non-scaling-stroke" d="
  M 298.29 384.86
  Q 300.39 383.01 303.64 382.35"
/>
<path stroke="#062442" vector-effect="non-scaling-stroke" d="
  M 268.19 414.59
  Q 266.75 413.34 265.47 413.71
  Q 258.05 415.90 247.00 416.95
  Q 218.89 419.62 191.64 412.50
  C 166.56 405.96 139.77 384.71 128.22 361.72"
/>
<path stroke="#d4e0d2" vector-effect="non-scaling-stroke" d="
  M 201.27 357.14
  Q 184.24 346.85 173.74 343.01
  Q 161.49 338.53 148.30 333.83"
/>
<path stroke="#d7ebe8" vector-effect="non-scaling-stroke" d="
  M 148.75 312.37
  Q 146.27 323.27 148.30 333.83"
/>
<path stroke="#f6f1e1" vector-effect="non-scaling-stroke" d="
  M 148.30 333.83
  Q 145.54 337.89 146.20 342.41
  Q 146.28 342.94 146.71 343.28
  L 148.26 344.47
  Q 148.65 344.77 148.87 345.22
  Q 149.76 347.08 151.76 347.23
  Q 152.23 347.26 152.61 347.55
  C 154.10 348.66 155.68 348.76 157.20 349.72
  C 161.30 352.31 164.65 351.13 168.64 352.74
  C 172.37 354.24 176.25 355.14 179.88 356.71
  Q 190.30 361.22 201.78 361.96
  Q 202.33 361.99 202.41 361.45
  Q 202.96 358.17 201.27 357.14"
/>
<path stroke="#d7ebe8" vector-effect="non-scaling-stroke" d="
  M 201.27 357.14
  L 199.74 338.80
  Q 199.69 338.23 199.18 337.98
  L 167.02 322.71
  A 0.46 0.46 0.0 0 1 167.07 321.85
  L 167.81 321.60"
/>
<path stroke="#f6f1e1" vector-effect="non-scaling-stroke" d="
  M 275.21 374.33
  L 277.90 374.50
  Q 278.34 374.53 278.56 374.91
  L 278.75 375.22
  A 0.39 0.39 0.0 0 1 278.46 375.80
  Q 276.39 376.04 276.80 377.71
  C 278.28 383.64 282.44 384.92 287.93 385.32
  C 291.32 385.58 294.25 383.81 297.48 383.63
  Q 298.42 383.58 298.29 384.86"
/>
<path stroke="#faf1d2" vector-effect="non-scaling-stroke" d="
  M 169.19 378.60
  Q 169.20 377.78 169.43 377.65
  A 1.73 1.70 42.0 0 1 171.02 377.58
  C 182.31 382.89 192.68 385.89 204.56 379.75
  C 208.48 377.72 209.74 374.51 207.18 370.72
  Q 206.80 370.16 206.20 370.48
  Q 204.61 371.36 204.23 373.29
  A 2.08 2.07 -78.6 0 1 201.77 374.93
  Q 185.63 371.59 170.57 366.74
  C 167.10 365.62 161.97 364.58 157.76 362.22
  Q 157.36 361.99 157.11 362.38
  L 156.06 364.09"
/>
<path stroke="#7e8599" vector-effect="non-scaling-stroke" d="
  M 224.25 349.39
  C 224.81 355.23 229.64 366.54 236.72 356.83
  Q 236.99 356.45 236.61 356.19
  L 225.57 348.61
  A 0.85 0.84 14.3 0 0 224.25 349.39"
/>
<path stroke="#7c8495" vector-effect="non-scaling-stroke" d="
  M 428.35 356.60
  C 430.32 358.85 433.86 363.39 437.27 360.05
  Q 441.39 356.02 443.01 350.41
  A 1.13 1.13 0.0 0 0 441.92 348.97
  C 438.01 348.99 432.44 354.05 428.53 355.78
  A 0.52 0.52 0.0 0 0 428.35 356.60"
/>
<path stroke="#7e827f" vector-effect="non-scaling-stroke" d="
  M 269.97 480.68
  Q 263.19 484.84 257.53 490.34"
/>
<path stroke="#7e8599" vector-effect="non-scaling-stroke" d="
  M 257.53 490.34
  C 244.48 502.69 235.52 520.16 229.27 537.26
  Q 225.90 546.49 216.66 559.44
  Q 216.35 559.87 216.36 560.39
  L 216.61 573.00"
/>
<path stroke="#7f858a" vector-effect="non-scaling-stroke" d="
  M 216.61 573.00
  L 216.59 582.85
  Q 216.59 583.42 217.16 583.42
  C 291.70 583.85 366.21 583.97 440.73 583.16"
/>
<path stroke="#7e827f" vector-effect="non-scaling-stroke" d="
  M 440.73 583.16
  L 452.41 582.84
  Q 452.98 582.82 452.96 582.25
  L 452.52 571.71"
/>
<path stroke="#7e8599" vector-effect="non-scaling-stroke" d="
  M 452.52 571.71
  L 452.56 551.80
  A 1.62 1.58 28.4 0 0 452.28 550.90
  C 446.69 542.52 443.80 531.96 440.08 522.60
  Q 434.53 508.65 431.71 504.76
  Q 413.09 479.10 383.07 467.69
  C 375.52 464.82 370.09 464.12 360.23 462.56
  C 340.25 459.39 319.66 461.63 301.74 465.75
  Q 285.34 469.52 269.97 480.68"
/>
<path stroke="#fcfae5" vector-effect="non-scaling-stroke" d="
  M 452.52 571.71
  Q 450.87 572.25 450.55 570.66
  A 0.74 0.73 84.2 0 0 449.83 570.07
  C 448.31 570.07 446.78 569.73 445.37 569.70
  C 431.24 569.46 416.68 568.73 403.00 568.74
  C 358.11 568.79 313.21 569.01 268.32 568.97
  Q 239.86 568.93 220.44 570.15
  Q 218.74 570.26 219.34 572.26"
/>
<path stroke="#fdfdf0" vector-effect="non-scaling-stroke" d="
  M 219.34 572.26
  Q 218.59 573.64 216.61 573.00"
/>
<path stroke="#fcfae5" vector-effect="non-scaling-stroke" d="
  M 257.53 490.34
  Q 259.13 492.05 260.74 491.52
  Q 267.29 489.36 272.61 488.27
  C 282.87 486.18 292.98 483.73 303.14 481.28
  C 322.39 476.65 342.28 475.54 361.84 478.53
  C 376.17 480.72 388.01 484.79 401.22 487.41
  Q 405.74 488.30 406.90 484.68
  A 1.00 1.00 0.0 0 0 406.29 483.44
  C 396.40 479.84 386.41 475.73 376.21 473.14
  C 361.44 469.38 347.24 467.28 332.31 468.61
  Q 326.57 469.12 318.12 470.29
  C 307.32 471.79 296.53 475.28 285.81 478.01
  C 282.17 478.94 276.81 479.27 272.40 481.76
  Q 271.97 482.00 271.49 481.88
  Q 269.64 481.43 269.97 480.68"
/>
<path stroke="#fcfad6" vector-effect="non-scaling-stroke" d="
  M 440.73 583.16
  Q 438.20 583.23 437.02 581.11
  Q 436.77 580.67 436.27 580.63
  Q 429.66 580.18 423.06 579.99
  C 420.30 579.90 417.99 578.88 415.19 578.51
  Q 414.81 578.46 414.51 578.22
  Q 414.09 577.88 413.68 578.16
  Q 413.27 578.45 412.77 578.47
  Q 408.56 578.66 404.72 577.19
  C 400.87 575.72 396.93 576.26 392.99 576.68
  C 390.47 576.95 388.48 575.78 386.22 575.80
  Q 383.39 575.83 380.56 575.67
  C 376.46 575.44 372.33 576.23 368.01 575.68
  C 366.24 575.46 364.31 576.58 362.31 576.30
  C 352.27 574.92 343.89 575.93 334.55 576.23
  C 331.63 576.32 328.76 575.05 325.25 575.73
  C 310.57 578.57 294.20 573.78 281.45 578.00
  Q 278.81 578.87 275.88 579.07
  C 272.35 579.30 269.01 580.21 265.60 580.25
  Q 250.63 580.40 235.67 580.33
  C 232.18 580.31 226.51 581.14 221.68 580.22
  Q 221.17 580.12 220.91 579.67
  C 219.58 577.46 219.88 574.71 219.34 572.26"
/>
<path stroke="#7e8599" vector-effect="non-scaling-stroke" d="
  M 249.52 523.72
  Q 235.46 532.94 228.84 547.28"
/>
<path stroke="#fafcfb" vector-effect="non-scaling-stroke" d="
  M 228.84 547.28
  Q 225.97 551.09 224.79 555.10
  A 1.33 1.32 -78.8 0 0 225.91 556.79
  C 235.60 557.87 245.15 558.88 255.01 559.04
  Q 282.28 559.50 299.44 559.16
  Q 305.94 559.04 310.81 560.77
  C 312.23 561.28 315.15 559.96 316.75 559.87
  Q 330.28 559.17 343.75 560.71
  C 351.22 561.57 362.79 560.42 373.53 561.42
  C 380.66 562.08 386.98 561.08 393.74 560.67
  Q 395.82 560.55 397.97 561.40
  C 403.56 563.62 407.73 562.57 413.10 561.92
  Q 413.44 561.88 413.49 562.22
  L 413.55 562.67
  A 0.21 0.20 -10.3 0 0 413.80 562.84
  Q 418.49 561.70 423.28 562.02
  A 1.55 1.55 0.0 0 0 424.92 560.31
  Q 424.39 555.35 421.49 551.32
  Q 421.17 550.87 420.63 550.79
  Q 418.17 550.41 416.85 548.06
  Q 416.61 547.63 416.11 547.68
  Q 415.02 547.79 413.96 547.48
  Q 412.93 547.18 413.99 547.06
  L 415.75 546.84"
/>
<path stroke="#7e8599" vector-effect="non-scaling-stroke" d="
  M 415.75 546.84
  L 445.54 547.44
  Q 446.27 547.45 445.97 546.79
  Q 439.78 533.16 427.48 523.42"
/>
<path stroke="#fcf2d6" vector-effect="non-scaling-stroke" d="
  M 427.48 523.42
  Q 433.17 519.24 434.05 513.26
  Q 434.25 511.88 432.87 511.80
  Q 432.40 511.77 432.12 511.40
  L 428.62 506.72
  Q 428.32 506.32 427.83 506.20
  Q 388.88 497.09 349.00 494.01
  C 338.14 493.17 323.42 494.04 310.93 496.33
  Q 282.61 501.54 254.28 506.74
  C 252.48 507.07 243.97 506.88 245.57 511.19
  Q 247.30 515.80 247.03 519.77
  A 1.41 1.40 -60.9 0 0 247.28 520.66
  L 249.52 523.72"
/>
<path stroke="#7e7a70" vector-effect="non-scaling-stroke" d="
  M 427.48 523.42
  C 400.77 503.09 361.19 498.20 327.71 500.37
  C 313.84 501.27 300.36 504.55 286.52 508.31
  Q 266.49 513.75 249.52 523.72"
/>
<path stroke="#7c8495" vector-effect="non-scaling-stroke" d="
  M 415.75 546.84
  L 228.84 547.28"
/>
</g>
<path fill="#fcfdff" d="
  M 0.00 0.00
  L 668.00 0.00
  L 668.00 692.00
  L 0.00 692.00
  L 0.00 0.00
  Z
  M 258.97 185.71
  Q 259.22 120.83 259.25 55.97
  C 259.26 44.98 258.43 37.09 251.81 29.46
  Q 241.42 17.49 224.75 17.48
  Q 171.84 17.47 118.94 17.49
  C 104.24 17.50 91.64 28.57 88.44 42.30
  Q 87.48 46.42 87.49 62.23
  Q 87.52 103.46 87.43 148.45
  A 0.30 0.30 0.0 0 1 87.12 148.75
  C 77.34 148.73 64.38 147.54 55.39 149.70
  C 38.70 153.72 27.09 167.56 24.98 184.25
  C 24.15 190.85 24.98 201.92 24.99 208.92
  Q 25.08 285.43 24.89 361.93
  C 24.84 385.20 25.15 408.48 25.14 431.76
  C 25.12 448.04 33.61 457.48 46.91 465.35
  Q 84.13 487.38 121.56 509.02
  Q 127.37 512.38 132.21 517.05
  Q 135.27 519.99 135.43 525.24
  C 136.39 557.35 135.71 589.58 135.77 621.72
  Q 135.79 629.76 137.10 634.52
  C 141.40 650.08 154.12 662.41 169.71 666.56
  Q 175.16 668.02 186.42 668.06
  C 285.26 668.41 384.10 668.21 482.94 668.13
  C 511.16 668.10 533.99 648.19 534.28 619.25
  Q 534.74 572.72 534.43 526.19
  C 534.39 519.48 537.37 515.72 542.83 512.34
  Q 582.27 487.95 621.96 463.99
  C 632.00 457.93 640.39 448.09 641.25 436.15
  C 642.13 424.05 641.51 409.27 641.51 400.05
  Q 641.48 300.24 641.52 200.43
  C 641.52 188.52 642.84 176.81 635.26 166.26
  C 626.93 154.69 615.14 148.55 600.94 148.74
  Q 589.92 148.89 578.82 149.06
  Q 578.28 149.07 578.28 148.53
  Q 578.23 99.89 578.13 51.25
  C 578.10 35.40 572.33 23.84 557.46 17.37
  C 551.72 14.88 545.12 14.63 538.75 14.68
  Q 489.75 15.08 440.75 14.56
  Q 429.12 14.43 420.34 20.36
  C 409.99 27.35 406.43 37.27 406.12 49.39
  C 405.47 75.44 405.84 101.50 405.66 127.57
  Q 405.45 156.77 406.37 185.07
  Q 406.41 186.24 405.23 186.24
  L 259.51 186.25
  Q 258.96 186.25 258.97 185.71
  Z"
/>
<path fill="#000d33" d="
  M 259.51 186.25
  L 405.23 186.24
  Q 406.41 186.24 406.37 185.07
  Q 405.45 156.77 405.66 127.57
  C 405.84 101.50 405.47 75.44 406.12 49.39
  C 406.43 37.27 409.99 27.35 420.34 20.36
  Q 429.12 14.43 440.75 14.56
  Q 489.75 15.08 538.75 14.68
  C 545.12 14.63 551.72 14.88 557.46 17.37
  C 572.33 23.84 578.10 35.40 578.13 51.25
  Q 578.23 99.89 578.28 148.53
  Q 578.28 149.07 578.82 149.06
  Q 589.92 148.89 600.94 148.74
  C 615.14 148.55 626.93 154.69 635.26 166.26
  C 642.84 176.81 641.52 188.52 641.52 200.43
  Q 641.48 300.24 641.51 400.05
  C 641.51 409.27 642.13 424.05 641.25 436.15
  C 640.39 448.09 632.00 457.93 621.96 463.99
  Q 582.27 487.95 542.83 512.34
  C 537.37 515.72 534.39 519.48 534.43 526.19
  Q 534.74 572.72 534.28 619.25
  C 533.99 648.19 511.16 668.10 482.94 668.13
  C 384.10 668.21 285.26 668.41 186.42 668.06
  Q 175.16 668.02 169.71 666.56
  C 154.12 662.41 141.40 650.08 137.10 634.52
  Q 135.79 629.76 135.77 621.72
  C 135.71 589.58 136.39 557.35 135.43 525.24
  Q 135.27 519.99 132.21 517.05
  Q 127.37 512.38 121.56 509.02
  Q 84.13 487.38 46.91 465.35
  C 33.61 457.48 25.12 448.04 25.14 431.76
  C 25.15 408.48 24.84 385.20 24.89 361.93
  Q 25.08 285.43 24.99 208.92
  C 24.98 201.92 24.15 190.85 24.98 184.25
  C 27.09 167.56 38.70 153.72 55.39 149.70
  C 64.38 147.54 77.34 148.73 87.12 148.75
  A 0.30 0.30 0.0 0 0 87.43 148.45
  Q 87.52 103.46 87.49 62.23
  Q 87.48 46.42 88.44 42.30
  C 91.64 28.57 104.24 17.50 118.94 17.49
  Q 171.84 17.47 224.75 17.48
  Q 241.42 17.49 251.81 29.46
  C 258.43 37.09 259.26 44.98 259.25 55.97
  Q 259.22 120.83 258.97 185.71
  Q 258.96 186.25 259.51 186.25
  Z
  M 153.81 52.54
  Q 144.61 53.18 135.00 53.11
  C 124.15 53.03 121.47 58.59 121.49 68.90
  Q 121.51 75.95 121.51 83.06
  L 121.72 147.88
  Q 121.72 148.46 122.30 148.46
  L 125.75 148.48
  L 154.97 148.70
  Q 155.48 148.70 155.49 148.18
  L 155.53 135.00
  L 155.69 105.96
  Q 155.69 105.33 156.32 105.33
  L 181.68 105.48
  Q 182.27 105.48 182.27 106.07
  L 182.37 134.84
  L 182.78 147.71
  Q 182.80 148.25 183.34 148.26
  L 212.27 148.68
  L 224.00 148.72
  Q 224.52 148.72 224.52 148.21
  Q 224.39 106.12 224.79 64.02
  C 224.86 56.94 221.16 52.35 213.76 52.66
  Q 201.40 53.17 189.02 53.07
  Q 186.97 53.26 186.70 52.37
  Q 186.59 52.01 186.21 51.98
  Q 169.92 50.77 153.81 52.54
  Z
  M 441.07 59.74
  L 441.00 147.45
  A 1.58 1.58 0.0 0 0 442.60 149.04
  L 477.54 148.68
  Q 478.14 148.67 478.15 148.06
  L 478.19 134.78
  L 478.49 106.06
  Q 478.49 105.48 479.08 105.48
  L 503.72 105.43
  Q 504.41 105.43 504.41 106.12
  L 504.74 136.20
  L 504.76 147.77
  A 0.98 0.98 0.0 0 0 505.74 148.75
  L 543.30 148.75
  Q 543.95 148.75 543.95 148.11
  L 543.98 143.25
  Q 543.91 88.97 544.22 63.01
  C 544.38 49.64 534.08 51.74 525.22 51.74
  Q 489.57 51.76 453.91 51.74
  C 447.05 51.74 443.67 53.59 441.07 59.74
  Z
  M 60.70 270.49
  Q 59.42 281.82 60.42 293.26
  L 60.49 315.45
  C 60.28 319.82 60.64 323.41 60.02 328.14
  Q 59.54 331.75 60.74 335.16
  L 60.71 364.74
  Q 58.73 376.46 60.96 387.80
  Q 60.73 402.52 60.79 417.33
  C 60.81 423.59 60.78 433.76 70.24 432.89
  C 100.63 449.64 130.78 466.74 161.06 483.70
  Q 166.62 486.82 174.75 492.04
  L 172.20 493.36
  Q 171.76 493.59 171.69 494.07
  Q 169.69 506.31 171.55 518.20
  L 171.45 600.69
  Q 171.11 610.39 171.28 620.01
  C 171.37 625.69 176.34 626.19 180.50 626.25
  Q 222.64 626.84 280.81 626.35
  C 328.15 625.95 393.80 626.50 454.89 626.07
  L 497.87 625.87
  A 1.20 1.20 0.0 0 0 499.06 624.67
  L 499.03 610.79
  L 499.23 488.90
  Q 507.35 483.19 514.69 478.69
  Q 543.43 461.03 577.26 442.06
  C 584.82 437.50 594.21 433.16 602.79 431.69
  Q 604.38 431.41 604.42 429.69
  C 606.05 352.86 605.43 275.84 604.58 199.01
  L 604.01 185.71
  A 1.63 1.62 -1.1 0 0 602.38 184.15
  L 440.54 183.92
  A 0.88 0.88 0.0 0 0 439.66 184.83
  Q 440.03 197.34 439.50 210.33
  C 439.02 222.07 433.46 223.67 422.45 223.34
  Q 414.10 223.10 405.72 223.36
  C 404.57 222.78 403.32 222.26 401.94 222.28
  Q 338.47 223.25 275.00 222.41
  Q 272.87 222.39 270.36 223.99
  Q 256.59 223.07 237.24 223.31
  C 227.93 223.43 227.22 217.01 227.28 209.12
  Q 227.37 196.83 226.96 184.51
  Q 226.94 184.01 226.45 184.05
  L 218.80 184.64
  Q 218.37 184.68 217.98 184.49
  Q 213.15 182.10 207.86 182.71
  C 201.65 183.43 196.91 183.49 191.24 183.69
  Q 160.27 183.85 129.29 183.67
  C 117.05 183.60 102.72 183.85 89.41 183.73
  C 86.99 183.71 84.46 184.76 81.80 184.29
  Q 76.25 185.63 72.27 184.07
  Q 70.70 182.74 68.79 182.27
  Q 68.27 182.14 67.80 182.40
  C 60.63 186.32 61.42 191.36 61.25 200.01
  Q 60.53 235.25 60.70 270.49
  Z"
/>
<path fill="#0c3b50" d="
  M 189.02 53.07
  Q 171.61 53.53 153.81 52.54
  Q 169.92 50.77 186.21 51.98
  Q 186.59 52.01 186.70 52.37
  Q 186.97 53.26 189.02 53.07
  Z"
/>
<path fill="#f8fbf7" d="
  M 543.98 143.25
  Q 541.77 141.91 542.91 136.98
  A 1.49 1.48 -81.8 0 0 541.55 135.16
  L 525.50 134.23
  Q 525.12 134.21 525.11 133.82
  Q 524.48 111.19 525.11 88.56
  C 525.32 81.17 526.88 63.57 515.00 63.64
  Q 495.82 63.76 476.67 63.79
  C 462.81 63.82 460.31 69.49 459.93 82.44
  Q 459.18 108.10 459.69 133.84
  Q 459.70 134.37 459.17 134.39
  L 445.61 134.75
  Q 446.71 126.23 446.42 117.52
  C 445.95 103.48 445.98 89.61 446.24 75.56
  Q 446.36 69.27 446.92 66.22
  Q 446.95 66.03 447.03 65.26
  Q 447.10 64.62 447.79 64.19
  Q 448.22 63.93 448.01 63.46
  Q 447.09 61.46 447.81 59.31
  A 0.54 0.54 0.0 0 0 447.17 58.62
  L 444.43 59.34
  Q 443.98 59.45 443.59 59.21
  Q 442.55 58.56 441.07 59.74
  C 443.67 53.59 447.05 51.74 453.91 51.74
  Q 489.57 51.76 525.22 51.74
  C 534.08 51.74 544.38 49.64 544.22 63.01
  Q 543.91 88.97 543.98 143.25
  Z"
/>
<path fill="#f8fbf7" d="
  M 212.27 148.68
  L 210.58 148.18
  A 0.68 0.68 0.0 0 1 210.74 146.85
  L 218.98 146.41
  A 2.96 2.96 0.0 0 0 221.77 143.21
  Q 221.50 139.95 222.67 136.96
  Q 223.35 135.26 221.51 135.17
  L 202.84 134.29
  Q 202.30 134.26 202.30 133.73
  Q 202.21 106.74 201.80 79.75
  C 201.75 76.65 202.03 72.85 200.58 70.24
  C 198.04 65.68 190.52 65.05 186.25 65.17
  C 174.13 65.53 161.92 65.80 149.81 65.17
  C 137.80 64.54 134.94 66.53 129.64 76.90
  L 127.51 81.44
  A 1.05 1.02 6.5 0 1 126.76 82.02
  L 121.51 83.06
  Q 121.51 75.95 121.49 68.90
  C 121.47 58.59 124.15 53.03 135.00 53.11
  Q 144.61 53.18 153.81 52.54
  Q 171.61 53.53 189.02 53.07
  Q 201.40 53.17 213.76 52.66
  C 221.16 52.35 224.86 56.94 224.79 64.02
  Q 224.39 106.12 224.52 148.21
  Q 224.52 148.72 224.00 148.72
  L 212.27 148.68
  Z"
/>
<path fill="#fdfce0" d="
  M 445.61 134.75
  Q 444.60 134.65 444.03 134.80
  Q 443.43 134.95 443.36 135.90
  Q 443.02 140.59 443.74 145.16
  A 1.49 1.47 84.1 0 0 445.26 146.41
  Q 451.79 146.12 458.74 146.14
  C 460.49 146.14 461.76 146.89 463.56 146.78
  Q 469.09 146.46 474.77 146.15
  Q 475.32 146.12 475.38 145.58
  L 476.58 134.68
  Q 477.54 134.92 478.19 134.78
  L 478.15 148.06
  Q 478.14 148.67 477.54 148.68
  L 442.60 149.04
  A 1.58 1.58 0.0 0 1 441.00 147.45
  L 441.07 59.74
  Q 442.55 58.56 443.59 59.21
  Q 443.98 59.45 444.43 59.34
  L 447.17 58.62
  A 0.54 0.54 0.0 0 1 447.81 59.31
  Q 447.09 61.46 448.01 63.46
  Q 448.22 63.93 447.79 64.19
  Q 447.10 64.62 447.03 65.26
  Q 446.95 66.03 446.92 66.22
  Q 446.36 69.27 446.24 75.56
  C 445.98 89.61 445.95 103.48 446.42 117.52
  Q 446.71 126.23 445.61 134.75
  Z"
/>
<path fill="#fbe6ac" d="
  M 543.98 143.25
  L 543.95 148.11
  Q 543.95 148.75 543.30 148.75
  L 505.74 148.75
  A 0.98 0.98 0.0 0 1 504.76 147.77
  L 504.74 136.20
  Q 511.77 134.25 519.69 134.53
  Q 520.29 134.55 520.29 133.94
  Q 520.53 107.34 520.85 80.75
  C 520.92 75.03 517.83 70.33 511.76 70.45
  C 497.73 70.73 486.21 70.99 475.74 70.49
  C 468.89 70.16 464.58 73.18 464.34 80.52
  Q 463.47 106.53 463.17 132.57
  Q 463.16 133.03 462.76 133.24
  L 461.95 133.66
  A 0.34 0.34 0.0 0 0 462.13 134.31
  C 465.86 134.10 474.64 133.25 476.58 134.68
  L 475.38 145.58
  Q 475.32 146.12 474.77 146.15
  Q 469.09 146.46 463.56 146.78
  C 461.76 146.89 460.49 146.14 458.74 146.14
  Q 451.79 146.12 445.26 146.41
  A 1.49 1.47 84.1 0 1 443.74 145.16
  Q 443.02 140.59 443.36 135.90
  Q 443.43 134.95 444.03 134.80
  Q 444.60 134.65 445.61 134.75
  L 459.17 134.39
  Q 459.70 134.37 459.69 133.84
  Q 459.18 108.10 459.93 82.44
  C 460.31 69.49 462.81 63.82 476.67 63.79
  Q 495.82 63.76 515.00 63.64
  C 526.88 63.57 525.32 81.17 525.11 88.56
  Q 524.48 111.19 525.11 133.82
  Q 525.12 134.21 525.50 134.23
  L 541.55 135.16
  A 1.49 1.48 -81.8 0 1 542.91 136.98
  Q 541.77 141.91 543.98 143.25
  Z"
/>
<path fill="#fbe6ac" d="
  M 212.27 148.68
  L 183.34 148.26
  Q 182.80 148.25 182.78 147.71
  L 182.37 134.84
  L 196.76 134.01
  Q 197.28 133.98 197.26 133.46
  C 196.52 115.71 197.57 96.70 196.22 78.22
  C 195.79 72.47 191.15 71.45 186.25 71.42
  C 175.31 71.34 164.38 71.25 153.45 70.96
  C 136.41 70.50 131.03 72.74 132.10 91.06
  Q 131.49 92.21 129.05 90.87
  A 1.64 1.64 0.0 0 1 128.21 89.24
  L 129.64 76.90
  C 134.94 66.53 137.80 64.54 149.81 65.17
  C 161.92 65.80 174.13 65.53 186.25 65.17
  C 190.52 65.05 198.04 65.68 200.58 70.24
  C 202.03 72.85 201.75 76.65 201.80 79.75
  Q 202.21 106.74 202.30 133.73
  Q 202.30 134.26 202.84 134.29
  L 221.51 135.17
  Q 223.35 135.26 222.67 136.96
  Q 221.50 139.95 221.77 143.21
  A 2.96 2.96 0.0 0 1 218.98 146.41
  L 210.74 146.85
  A 0.68 0.68 0.0 0 0 210.58 148.18
  L 212.27 148.68
  Z"
/>
<path fill="#fcfdff" d="
  M 504.74 136.20
  L 504.41 106.12
  Q 504.41 105.43 503.72 105.43
  L 479.08 105.48
  Q 478.49 105.48 478.49 106.06
  L 478.19 134.78
  Q 477.54 134.92 476.58 134.68
  C 474.64 133.25 465.86 134.10 462.13 134.31
  A 0.34 0.34 0.0 0 1 461.95 133.66
  L 462.76 133.24
  Q 463.16 133.03 463.17 132.57
  Q 463.47 106.53 464.34 80.52
  C 464.58 73.18 468.89 70.16 475.74 70.49
  C 486.21 70.99 497.73 70.73 511.76 70.45
  C 517.83 70.33 520.92 75.03 520.85 80.75
  Q 520.53 107.34 520.29 133.94
  Q 520.29 134.55 519.69 134.53
  Q 511.77 134.25 504.74 136.20
  Z"
/>
<path fill="#fcfdff" d="
  M 182.37 134.84
  L 182.27 106.07
  Q 182.27 105.48 181.68 105.48
  L 156.32 105.33
  Q 155.69 105.33 155.69 105.96
  L 155.53 135.00
  L 132.61 134.78
  L 132.10 91.06
  C 131.03 72.74 136.41 70.50 153.45 70.96
  C 164.38 71.25 175.31 71.34 186.25 71.42
  C 191.15 71.45 195.79 72.47 196.22 78.22
  C 197.57 96.70 196.52 115.71 197.26 133.46
  Q 197.28 133.98 196.76 134.01
  L 182.37 134.84
  Z"
/>
<path fill="#fbf7cb" d="
  M 129.64 76.90
  L 128.21 89.24
  A 1.64 1.64 0.0 0 0 129.05 90.87
  Q 131.49 92.21 132.10 91.06
  L 132.61 134.78
  L 125.39 135.05
  A 2.47 2.47 0.0 0 0 123.09 138.13
  L 125.75 148.48
  L 122.30 148.46
  Q 121.72 148.46 121.72 147.88
  L 121.51 83.06
  L 126.76 82.02
  A 1.05 1.02 6.5 0 0 127.51 81.44
  L 129.64 76.90
  Z"
/>
<path fill="#fbe6ac" d="
  M 132.61 134.78
  L 155.53 135.00
  L 155.49 148.18
  Q 155.48 148.70 154.97 148.70
  L 125.75 148.48
  L 123.09 138.13
  A 2.47 2.47 0.0 0 1 125.39 135.05
  L 132.61 134.78
  Z"
/>
<path fill="#fdfce0" d="
  M 72.27 184.07
  C 75.30 186.50 71.87 190.30 71.88 193.69
  Q 72.05 229.07 71.82 264.44
  C 71.70 283.16 72.26 302.28 71.70 321.26
  Q 71.46 375.62 71.50 430.00
  Q 71.50 431.35 70.24 432.89
  C 60.78 433.76 60.81 423.59 60.79 417.33
  Q 60.73 402.52 60.96 387.80
  Q 61.66 376.23 60.71 364.74
  L 60.74 335.16
  L 60.49 315.45
  L 60.42 293.26
  C 60.51 288.76 61.59 283.44 61.03 278.81
  C 60.67 275.80 60.82 273.32 60.70 270.49
  Q 60.53 235.25 61.25 200.01
  C 61.42 191.36 60.63 186.32 67.80 182.40
  Q 68.27 182.14 68.79 182.27
  Q 70.70 182.74 72.27 184.07
  Z"
/>
<path fill="#446f7f" d="
  M 270.36 223.99
  C 268.61 226.39 269.55 232.50 273.75 232.47
  C 276.53 232.45 280.45 232.00 283.75 232.00
  C 318.21 232.07 352.72 232.23 387.17 231.69
  C 391.52 231.63 396.67 232.74 400.45 232.63
  C 405.42 232.49 406.70 227.38 405.72 223.36
  Q 414.10 223.10 422.45 223.34
  C 433.46 223.67 439.02 222.07 439.50 210.33
  Q 440.03 197.34 439.66 184.83
  A 0.88 0.88 0.0 0 1 440.54 183.92
  L 602.38 184.15
  A 1.63 1.62 -1.1 0 1 604.01 185.71
  L 604.58 199.01
  L 573.38 199.01
  C 569.99 199.00 564.01 197.75 562.78 201.51
  Q 561.27 206.13 561.13 211.00
  C 560.28 239.37 560.39 267.87 560.77 296.27
  Q 559.34 296.55 558.26 295.60
  C 558.63 278.74 536.54 270.70 523.13 271.74
  C 515.60 272.32 507.74 275.55 500.78 279.01
  Q 438.94 309.74 376.60 339.50
  C 368.70 343.27 365.22 340.26 364.69 331.93
  Q 364.15 323.47 364.08 315.00
  C 364.01 305.99 352.73 303.50 347.74 310.71
  C 344.84 314.90 344.98 318.29 344.65 324.57
  Q 344.04 336.06 344.47 347.19
  Q 349.27 363.00 365.53 368.45
  C 369.08 369.64 374.37 371.84 378.06 370.83
  L 392.69 374.79
  Q 380.62 377.55 368.93 380.05
  C 367.21 380.42 366.79 381.34 367.12 382.97
  C 363.06 384.87 350.58 390.77 357.08 397.01
  Q 357.01 397.61 355.92 397.82
  Q 352.34 393.37 351.19 392.07
  C 340.81 380.28 324.91 381.86 316.90 395.30
  C 313.86 400.40 309.16 402.66 311.03 409.21
  Q 311.56 411.08 313.77 410.58
  C 319.74 409.21 325.86 406.97 331.53 406.45
  C 341.85 405.51 349.84 407.53 359.52 409.27
  A 0.57 0.57 0.0 0 0 360.19 408.63
  L 359.33 402.32
  Q 365.43 410.60 373.32 413.95
  C 389.42 420.80 407.78 422.42 425.34 425.29
  L 428.17 425.93
  A 0.68 0.68 0.0 0 1 428.69 426.47
  L 429.02 428.25
  Q 429.12 428.77 429.61 428.97
  C 444.34 435.09 462.29 434.30 477.06 429.16
  C 487.24 425.62 499.58 418.29 508.94 411.92
  C 524.48 401.35 534.91 386.74 543.83 370.18
  A 0.67 0.67 0.0 0 0 543.24 369.19
  Q 539.47 369.17 535.83 370.10
  C 532.49 370.96 530.80 373.85 529.02 376.54
  A 0.76 0.76 0.0 0 1 527.64 376.26
  L 527.35 374.65
  C 541.47 358.26 546.38 334.32 545.42 313.26
  L 545.51 312.31
  Q 545.55 311.85 546.00 311.86
  L 560.73 312.18
  Q 560.90 366.17 560.74 420.00
  C 560.72 425.67 561.34 429.67 566.13 432.48
  A 0.76 0.75 41.0 0 1 566.22 433.72
  C 560.40 438.36 554.88 442.10 547.91 445.90
  Q 520.08 461.04 493.18 477.75
  C 487.22 481.45 475.17 488.58 471.91 496.44
  C 453.34 460.74 420.38 436.02 382.25 424.50
  C 361.66 418.28 337.67 417.76 314.96 420.47
  C 291.32 423.29 270.85 431.64 250.83 444.24
  C 225.53 460.16 209.60 483.86 197.98 511.01
  Q 187.86 499.85 174.75 492.04
  Q 166.62 486.82 161.06 483.70
  C 130.78 466.74 100.63 449.64 70.24 432.89
  Q 71.50 431.35 71.50 430.00
  Q 71.46 375.62 71.70 321.26
  L 72.43 321.08
  Q 73.01 320.93 73.05 320.34
  L 73.57 312.97
  A 0.99 0.98 -3.9 0 1 74.36 312.07
  Q 79.12 311.13 80.95 308.67
  Q 84.69 313.41 88.74 312.27
  C 91.72 311.42 93.30 309.08 93.27 305.84
  Q 93.04 278.97 93.76 252.11
  C 93.90 246.79 92.39 243.31 86.76 242.97
  Q 86.32 239.32 87.30 236.64
  C 91.03 236.02 93.98 234.63 93.84 230.98
  Q 93.19 213.51 92.98 195.90
  A 0.62 0.62 0.0 0 1 93.60 195.28
  C 131.00 195.11 169.99 195.30 211.94 194.89
  Q 214.79 194.86 217.04 194.02
  A 1.06 1.05 87.3 0 0 217.69 193.30
  C 218.76 189.20 218.46 183.65 212.76 183.74
  Q 206.48 183.84 191.24 183.69
  C 196.91 183.49 201.65 183.43 207.86 182.71
  Q 213.15 182.10 217.98 184.49
  Q 218.37 184.68 218.80 184.64
  L 226.45 184.05
  Q 226.94 184.01 226.96 184.51
  Q 227.37 196.83 227.28 209.12
  C 227.22 217.01 227.93 223.43 237.24 223.31
  Q 256.59 223.07 270.36 223.99
  Z
  M 128.22 361.72
  C 126.07 366.37 131.92 376.59 134.51 380.00
  C 144.49 393.14 158.65 406.19 173.89 413.36
  C 192.15 421.95 213.85 427.18 233.93 424.15
  Q 251.01 421.57 268.19 414.59
  Q 287.69 408.46 306.32 400.47
  Q 307.39 400.01 309.35 399.48
  C 312.59 398.60 317.75 392.44 315.69 389.01
  Q 311.74 382.44 303.64 382.35
  Q 296.04 377.91 288.70 374.14
  C 286.91 373.22 285.38 373.51 283.44 373.46
  Q 285.49 371.89 287.72 371.51
  C 300.20 371.68 314.73 367.70 319.36 354.69
  C 325.26 345.28 323.76 330.38 322.99 319.04
  C 322.68 314.36 321.58 310.84 317.91 308.27
  C 313.66 305.28 307.66 305.55 305.21 310.63
  Q 304.28 312.56 304.18 316.55
  Q 303.94 325.39 304.20 334.28
  C 304.60 347.86 289.18 340.13 281.75 336.49
  Q 223.09 307.73 164.58 278.66
  Q 158.24 275.52 152.94 273.60
  C 139.66 268.81 124.00 272.18 115.15 283.65
  C 108.40 292.40 114.22 298.83 121.86 303.47
  Q 122.36 303.78 122.29 304.36
  C 120.06 323.83 121.56 342.66 128.22 361.72
  Z"
/>
<path fill="#fdfce0" d="
  M 191.24 183.69
  Q 206.48 183.84 212.76 183.74
  C 218.46 183.65 218.76 189.20 217.69 193.30
  A 1.06 1.05 87.3 0 1 217.04 194.02
  Q 214.79 194.86 211.94 194.89
  C 169.99 195.30 131.00 195.11 93.60 195.28
  A 0.62 0.62 0.0 0 0 92.98 195.90
  Q 93.19 213.51 93.84 230.98
  C 93.98 234.63 91.03 236.02 87.30 236.64
  C 81.88 235.99 80.98 231.55 81.01 226.59
  Q 81.12 206.84 80.73 186.99
  Q 80.72 186.29 81.80 184.29
  C 84.46 184.76 86.99 183.71 89.41 183.73
  C 102.72 183.85 117.05 183.60 129.29 183.67
  Q 160.27 183.85 191.24 183.69
  Z"
/>
<path fill="#2d5a6f" d="
  M 72.27 184.07
  Q 76.25 185.63 81.80 184.29
  Q 80.72 186.29 80.73 186.99
  Q 81.12 206.84 81.01 226.59
  C 80.98 231.55 81.88 235.99 87.30 236.64
  Q 86.32 239.32 86.76 242.97
  C 82.57 242.98 80.74 244.83 80.73 249.10
  Q 80.64 278.91 80.95 308.67
  Q 79.12 311.13 74.36 312.07
  A 0.99 0.98 -3.9 0 0 73.57 312.97
  L 73.05 320.34
  Q 73.01 320.93 72.43 321.08
  L 71.70 321.26
  C 72.26 302.28 71.70 283.16 71.82 264.44
  Q 72.05 229.07 71.88 193.69
  C 71.87 190.30 75.30 186.50 72.27 184.07
  Z"
/>
<path fill="#0c3b50" d="
  M 573.38 199.01
  Q 574.93 218.29 574.59 237.76
  C 574.10 265.74 574.25 293.70 574.38 321.69
  C 574.50 346.60 574.10 371.48 574.49 396.40
  C 574.57 401.32 573.95 407.33 574.14 412.83
  Q 574.15 412.93 574.25 412.97
  Q 574.38 413.01 574.46 413.11
  Q 574.55 413.20 574.56 413.40
  Q 574.87 418.04 575.79 422.60
  C 576.42 425.70 575.68 428.95 578.65 432.05
  Q 579.01 432.42 579.10 432.92
  Q 579.98 437.85 577.26 442.06
  Q 543.43 461.03 514.69 478.69
  Q 507.35 483.19 499.23 488.90
  C 491.83 492.58 483.04 498.59 480.03 505.85
  Q 479.09 508.12 477.98 510.57
  L 471.91 496.44
  C 475.17 488.58 487.22 481.45 493.18 477.75
  Q 520.08 461.04 547.91 445.90
  C 554.88 442.10 560.40 438.36 566.22 433.72
  A 0.76 0.75 41.0 0 0 566.13 432.48
  C 561.34 429.67 560.72 425.67 560.74 420.00
  Q 560.90 366.17 560.73 312.18
  L 560.77 296.27
  C 560.39 267.87 560.28 239.37 561.13 211.00
  Q 561.27 206.13 562.78 201.51
  C 564.01 197.75 569.99 199.00 573.38 199.01
  Z"
/>
<path fill="#002a44" d="
  M 573.38 199.01
  L 604.58 199.01
  C 605.43 275.84 606.05 352.86 604.42 429.69
  Q 604.38 431.41 602.79 431.69
  C 594.21 433.16 584.82 437.50 577.26 442.06
  Q 579.98 437.85 579.10 432.92
  Q 579.01 432.42 578.65 432.05
  C 575.68 428.95 576.42 425.70 575.79 422.60
  Q 574.87 418.04 574.56 413.40
  Q 574.55 413.20 574.46 413.11
  Q 574.38 413.01 574.25 412.97
  Q 574.15 412.93 574.14 412.83
  C 573.95 407.33 574.57 401.32 574.49 396.40
  C 574.10 371.48 574.50 346.60 574.38 321.69
  C 574.25 293.70 574.10 265.74 574.59 237.76
  Q 574.93 218.29 573.38 199.01
  Z"
/>
<path fill="#fdfce0" d="
  M 405.72 223.36
  C 406.70 227.38 405.42 232.49 400.45 232.63
  C 396.67 232.74 391.52 231.63 387.17 231.69
  C 352.72 232.23 318.21 232.07 283.75 232.00
  C 280.45 232.00 276.53 232.45 273.75 232.47
  C 269.55 232.50 268.61 226.39 270.36 223.99
  Q 272.87 222.39 275.00 222.41
  Q 338.47 223.25 401.94 222.28
  C 403.32 222.26 404.57 222.78 405.72 223.36
  Z"
/>
<path fill="#fdfce0" d="
  M 86.76 242.97
  C 92.39 243.31 93.90 246.79 93.76 252.11
  Q 93.04 278.97 93.27 305.84
  C 93.30 309.08 91.72 311.42 88.74 312.27
  Q 84.69 313.41 80.95 308.67
  Q 80.64 278.91 80.73 249.10
  C 80.74 244.83 82.57 242.98 86.76 242.97
  Z"
/>
<path fill="#446f7f" d="
  M 60.70 270.49
  C 60.82 273.32 60.67 275.80 61.03 278.81
  C 61.59 283.44 60.51 288.76 60.42 293.26
  Q 59.42 281.82 60.70 270.49
  Z"
/>
<path fill="#000d33" d="
  M 319.36 354.69
  C 309.74 363.89 299.20 366.96 287.72 371.51
  Q 285.49 371.89 283.44 373.46
  L 275.21 374.33
  L 266.94 372.75
  Q 266.46 372.66 266.04 372.91
  C 249.25 382.76 221.70 384.55 208.64 367.58
  C 202.53 359.65 200.86 347.58 201.09 337.51
  Q 201.10 337.02 200.66 336.81
  L 167.81 321.60
  L 148.75 312.37
  L 145.34 309.78
  A 0.31 0.31 0.0 0 0 144.86 309.92
  C 138.41 328.16 144.18 349.31 156.06 364.09
  Q 161.67 371.89 169.19 378.60
  C 194.94 397.44 227.97 405.56 259.49 398.72
  C 265.03 397.52 271.03 396.75 276.31 394.73
  C 284.00 391.79 291.37 389.28 298.29 384.86
  Q 300.39 383.01 303.64 382.35
  Q 311.74 382.44 315.69 389.01
  C 317.75 392.44 312.59 398.60 309.35 399.48
  Q 307.39 400.01 306.32 400.47
  Q 287.69 408.46 268.19 414.59
  Q 266.75 413.34 265.47 413.71
  Q 258.05 415.90 247.00 416.95
  Q 218.89 419.62 191.64 412.50
  C 166.56 405.96 139.77 384.71 128.22 361.72
  C 121.56 342.66 120.06 323.83 122.29 304.36
  Q 122.36 303.78 121.86 303.47
  C 114.22 298.83 108.40 292.40 115.15 283.65
  C 124.00 272.18 139.66 268.81 152.94 273.60
  Q 158.24 275.52 164.58 278.66
  Q 223.09 307.73 281.75 336.49
  C 289.18 340.13 304.60 347.86 304.20 334.28
  Q 303.94 325.39 304.18 316.55
  Q 304.28 312.56 305.21 310.63
  C 307.66 305.55 313.66 305.28 317.91 308.27
  C 321.58 310.84 322.68 314.36 322.99 319.04
  C 323.76 330.38 325.26 345.28 319.36 354.69
  Z
  M 224.25 349.39
  C 224.81 355.23 229.64 366.54 236.72 356.83
  Q 236.99 356.45 236.61 356.19
  L 225.57 348.61
  A 0.85 0.84 14.3 0 0 224.25 349.39
  Z"
/>
<path fill="#000d33" d="
  M 558.26 295.60
  C 556.11 301.64 550.17 302.46 544.60 304.06
  Q 544.06 304.22 544.14 304.78
  L 545.42 313.26
  C 546.38 334.32 541.47 358.26 527.35 374.65
  Q 526.28 375.57 526.09 376.66
  Q 522.57 378.73 520.31 382.00
  C 518.25 384.98 514.75 388.14 512.04 390.31
  C 496.66 402.61 478.44 412.05 458.99 415.65
  C 426.90 421.59 392.51 414.14 363.07 399.42
  Q 360.99 398.37 357.08 397.01
  C 350.58 390.77 363.06 384.87 367.12 382.97
  L 379.39 389.15
  C 399.52 397.86 421.66 403.23 443.52 399.63
  Q 472.03 394.94 495.54 378.27
  Q 503.56 372.57 508.05 365.71
  L 509.55 363.76
  Q 521.22 349.62 523.90 331.79
  Q 525.74 320.69 522.78 310.28
  Q 522.63 309.76 522.18 310.04
  Q 515.91 313.90 505.23 318.96
  Q 481.09 330.41 470.70 335.02
  Q 470.27 335.21 470.29 335.67
  Q 470.69 349.33 463.86 360.63
  C 461.53 364.01 459.58 367.33 456.47 369.89
  C 439.16 384.11 417.51 382.83 398.27 372.95
  Q 397.09 371.84 396.62 372.60
  Q 396.23 373.25 395.75 373.77
  L 392.69 374.79
  L 378.06 370.83
  Q 375.45 369.36 367.97 366.54
  C 358.27 362.89 352.14 355.05 344.47 347.19
  Q 344.04 336.06 344.65 324.57
  C 344.98 318.29 344.84 314.90 347.74 310.71
  C 352.73 303.50 364.01 305.99 364.08 315.00
  Q 364.15 323.47 364.69 331.93
  C 365.22 340.26 368.70 343.27 376.60 339.50
  Q 438.94 309.74 500.78 279.01
  C 507.74 275.55 515.60 272.32 523.13 271.74
  C 536.54 270.70 558.63 278.74 558.26 295.60
  Z
  M 428.35 356.60
  C 430.32 358.85 433.86 363.39 437.27 360.05
  Q 441.39 356.02 443.01 350.41
  A 1.13 1.13 0.0 0 0 441.92 348.97
  C 438.01 348.99 432.44 354.05 428.53 355.78
  A 0.52 0.52 0.0 0 0 428.35 356.60
  Z"
/>
<path fill="#2d5a6f" d="
  M 558.26 295.60
  Q 559.34 296.55 560.77 296.27
  L 560.73 312.18
  L 546.00 311.86
  Q 545.55 311.85 545.51 312.31
  L 545.42 313.26
  L 544.14 304.78
  Q 544.06 304.22 544.60 304.06
  C 550.17 302.46 556.11 301.64 558.26 295.60
  Z"
/>
<path fill="#f8fbf7" d="
  M 148.75 312.37
  Q 146.27 323.27 148.30 333.83
  Q 145.54 337.89 146.20 342.41
  Q 146.28 342.94 146.71 343.28
  L 148.26 344.47
  Q 148.65 344.77 148.87 345.22
  Q 149.76 347.08 151.76 347.23
  Q 152.23 347.26 152.61 347.55
  C 154.10 348.66 155.68 348.76 157.20 349.72
  C 161.30 352.31 164.65 351.13 168.64 352.74
  C 172.37 354.24 176.25 355.14 179.88 356.71
  Q 190.30 361.22 201.78 361.96
  Q 202.33 361.99 202.41 361.45
  Q 202.96 358.17 201.27 357.14
  L 199.74 338.80
  Q 199.69 338.23 199.18 337.98
  L 167.02 322.71
  A 0.46 0.46 0.0 0 1 167.07 321.85
  L 167.81 321.60
  L 200.66 336.81
  Q 201.10 337.02 201.09 337.51
  C 200.86 347.58 202.53 359.65 208.64 367.58
  C 221.70 384.55 249.25 382.76 266.04 372.91
  Q 266.46 372.66 266.94 372.75
  L 275.21 374.33
  L 277.90 374.50
  Q 278.34 374.53 278.56 374.91
  L 278.75 375.22
  A 0.39 0.39 0.0 0 1 278.46 375.80
  Q 276.39 376.04 276.80 377.71
  C 278.28 383.64 282.44 384.92 287.93 385.32
  C 291.32 385.58 294.25 383.81 297.48 383.63
  Q 298.42 383.58 298.29 384.86
  C 291.37 389.28 284.00 391.79 276.31 394.73
  C 271.03 396.75 265.03 397.52 259.49 398.72
  C 227.97 405.56 194.94 397.44 169.19 378.60
  Q 169.20 377.78 169.43 377.65
  A 1.73 1.70 42.0 0 1 171.02 377.58
  C 182.31 382.89 192.68 385.89 204.56 379.75
  C 208.48 377.72 209.74 374.51 207.18 370.72
  Q 206.80 370.16 206.20 370.48
  Q 204.61 371.36 204.23 373.29
  A 2.08 2.07 -78.6 0 1 201.77 374.93
  Q 185.63 371.59 170.57 366.74
  C 167.10 365.62 161.97 364.58 157.76 362.22
  Q 157.36 361.99 157.11 362.38
  L 156.06 364.09
  C 144.18 349.31 138.41 328.16 144.86 309.92
  A 0.31 0.31 0.0 0 1 145.34 309.78
  L 148.75 312.37
  Z"
/>
<path fill="#f3e6cb" d="
  M 523.90 331.79
  Q 523.25 329.84 521.88 330.92
  C 517.68 334.22 509.63 336.09 504.98 338.29
  C 490.70 345.05 481.71 351.75 470.18 359.21
  C 468.07 360.58 467.21 363.41 463.86 360.63
  Q 470.69 349.33 470.29 335.67
  Q 470.27 335.21 470.70 335.02
  Q 481.09 330.41 505.23 318.96
  Q 515.91 313.90 522.18 310.04
  Q 522.63 309.76 522.78 310.28
  Q 525.74 320.69 523.90 331.79
  Z"
/>
<path fill="#b5dad9" d="
  M 148.75 312.37
  L 167.81 321.60
  L 167.07 321.85
  A 0.46 0.46 0.0 0 0 167.02 322.71
  L 199.18 337.98
  Q 199.69 338.23 199.74 338.80
  L 201.27 357.14
  Q 184.24 346.85 173.74 343.01
  Q 161.49 338.53 148.30 333.83
  Q 146.27 323.27 148.75 312.37
  Z"
/>
<path fill="#446f7f" d="
  M 60.49 315.45
  L 60.74 335.16
  Q 59.54 331.75 60.02 328.14
  C 60.64 323.41 60.28 319.82 60.49 315.45
  Z"
/>
<path fill="#f8fbf7" d="
  M 523.90 331.79
  Q 521.22 349.62 509.55 363.76
  C 503.32 359.91 478.16 369.39 471.62 371.44
  C 467.47 372.75 464.42 372.44 461.05 370.04
  A 1.86 1.85 44.1 0 0 458.88 370.07
  L 453.53 374.07
  A 1.33 1.33 0.0 0 0 453.41 376.10
  C 462.73 384.93 473.54 381.47 484.74 380.14
  C 490.05 379.51 493.45 377.80 497.30 374.54
  C 500.15 372.12 503.78 369.75 506.30 366.49
  Q 506.63 366.07 507.06 365.90
  Q 507.74 365.63 508.05 365.71
  Q 503.56 372.57 495.54 378.27
  Q 472.03 394.94 443.52 399.63
  C 421.66 403.23 399.52 397.86 379.39 389.15
  Q 388.85 386.27 393.71 382.00
  Q 397.73 378.47 396.28 373.92
  Q 396.92 372.79 398.27 372.95
  C 417.51 382.83 439.16 384.11 456.47 369.89
  C 459.58 367.33 461.53 364.01 463.86 360.63
  C 467.21 363.41 468.07 360.58 470.18 359.21
  C 481.71 351.75 490.70 345.05 504.98 338.29
  C 509.63 336.09 517.68 334.22 521.88 330.92
  Q 523.25 329.84 523.90 331.79
  Z"
/>
<path fill="#f3e6cb" d="
  M 148.30 333.83
  Q 161.49 338.53 173.74 343.01
  Q 184.24 346.85 201.27 357.14
  Q 202.96 358.17 202.41 361.45
  Q 202.33 361.99 201.78 361.96
  Q 190.30 361.22 179.88 356.71
  C 176.25 355.14 172.37 354.24 168.64 352.74
  C 164.65 351.13 161.30 352.31 157.20 349.72
  C 155.68 348.76 154.10 348.66 152.61 347.55
  Q 152.23 347.26 151.76 347.23
  Q 149.76 347.08 148.87 345.22
  Q 148.65 344.77 148.26 344.47
  L 146.71 343.28
  Q 146.28 342.94 146.20 342.41
  Q 145.54 337.89 148.30 333.83
  Z"
/>
<path fill="#0c3b50" d="
  M 344.47 347.19
  C 352.14 355.05 358.27 362.89 367.97 366.54
  Q 375.45 369.36 378.06 370.83
  C 374.37 371.84 369.08 369.64 365.53 368.45
  Q 349.27 363.00 344.47 347.19
  Z"
/>
<path fill="#fcfdff" d="
  M 236.72 356.83
  C 229.64 366.54 224.81 355.23 224.25 349.39
  A 0.85 0.84 14.3 0 1 225.57 348.61
  L 236.61 356.19
  Q 236.99 356.45 236.72 356.83
  Z"
/>
<path fill="#f8fbf7" d="
  M 437.27 360.05
  C 433.86 363.39 430.32 358.85 428.35 356.60
  A 0.52 0.52 0.0 0 1 428.53 355.78
  C 432.44 354.05 438.01 348.99 441.92 348.97
  A 1.13 1.13 0.0 0 1 443.01 350.41
  Q 441.39 356.02 437.27 360.05
  Z"
/>
<path fill="#2d5a6f" d="
  M 319.36 354.69
  C 314.73 367.70 300.20 371.68 287.72 371.51
  C 299.20 366.96 309.74 363.89 319.36 354.69
  Z"
/>
<path fill="#0c3b50" d="
  M 128.22 361.72
  C 139.77 384.71 166.56 405.96 191.64 412.50
  Q 218.89 419.62 247.00 416.95
  Q 258.05 415.90 265.47 413.71
  Q 266.75 413.34 268.19 414.59
  Q 251.01 421.57 233.93 424.15
  C 213.85 427.18 192.15 421.95 173.89 413.36
  C 158.65 406.19 144.49 393.14 134.51 380.00
  C 131.92 376.59 126.07 366.37 128.22 361.72
  Z"
/>
<path fill="#fbe6ac" d="
  M 169.19 378.60
  Q 161.67 371.89 156.06 364.09
  L 157.11 362.38
  Q 157.36 361.99 157.76 362.22
  C 161.97 364.58 167.10 365.62 170.57 366.74
  Q 185.63 371.59 201.77 374.93
  A 2.08 2.07 -78.6 0 0 204.23 373.29
  Q 204.61 371.36 206.20 370.48
  Q 206.80 370.16 207.18 370.72
  C 209.74 374.51 208.48 377.72 204.56 379.75
  C 192.68 385.89 182.31 382.89 171.02 377.58
  A 1.73 1.70 42.0 0 0 169.43 377.65
  Q 169.20 377.78 169.19 378.60
  Z"
/>
<path fill="#fbe6ac" d="
  M 509.55 363.76
  L 508.05 365.71
  Q 507.74 365.63 507.06 365.90
  Q 506.63 366.07 506.30 366.49
  C 503.78 369.75 500.15 372.12 497.30 374.54
  C 493.45 377.80 490.05 379.51 484.74 380.14
  C 473.54 381.47 462.73 384.93 453.41 376.10
  A 1.33 1.33 0.0 0 1 453.53 374.07
  L 458.88 370.07
  A 1.86 1.85 44.1 0 1 461.05 370.04
  C 464.42 372.44 467.47 372.75 471.62 371.44
  C 478.16 369.39 503.32 359.91 509.55 363.76
  Z"
/>
<path fill="#446f7f" d="
  M 60.71 364.74
  Q 61.66 376.23 60.96 387.80
  Q 58.73 376.46 60.71 364.74
  Z"
/>
<path fill="#2d5a6f" d="
  M 425.34 425.29
  Q 445.20 427.63 464.99 423.20
  Q 472.25 421.57 482.26 416.00
  C 501.48 405.30 514.83 394.36 526.09 376.66
  Q 526.28 375.57 527.35 374.65
  L 527.64 376.26
  A 0.76 0.76 0.0 0 0 529.02 376.54
  C 530.80 373.85 532.49 370.96 535.83 370.10
  Q 539.47 369.17 543.24 369.19
  A 0.67 0.67 0.0 0 1 543.83 370.18
  C 534.91 386.74 524.48 401.35 508.94 411.92
  C 499.58 418.29 487.24 425.62 477.06 429.16
  C 462.29 434.30 444.34 435.09 429.61 428.97
  Q 429.12 428.77 429.02 428.25
  L 428.69 426.47
  A 0.68 0.68 0.0 0 0 428.17 425.93
  L 425.34 425.29
  Z"
/>
<path fill="#446f7f" d="
  M 398.27 372.95
  Q 396.92 372.79 396.28 373.92
  Q 396.26 373.65 395.75 373.77
  Q 396.23 373.25 396.62 372.60
  Q 397.09 371.84 398.27 372.95
  Z"
/>
<path fill="#f3e6cb" d="
  M 283.44 373.46
  C 285.38 373.51 286.91 373.22 288.70 374.14
  Q 296.04 377.91 303.64 382.35
  Q 300.39 383.01 298.29 384.86
  Q 298.42 383.58 297.48 383.63
  C 294.25 383.81 291.32 385.58 287.93 385.32
  C 282.44 384.92 278.28 383.64 276.80 377.71
  Q 276.39 376.04 278.46 375.80
  A 0.39 0.39 0.0 0 0 278.75 375.22
  L 278.56 374.91
  Q 278.34 374.53 277.90 374.50
  L 275.21 374.33
  L 283.44 373.46
  Z"
/>
<path fill="#f3e6cb" d="
  M 395.75 373.77
  Q 396.26 373.65 396.28 373.92
  Q 397.73 378.47 393.71 382.00
  Q 388.85 386.27 379.39 389.15
  L 367.12 382.97
  C 366.79 381.34 367.21 380.42 368.93 380.05
  Q 380.62 377.55 392.69 374.79
  L 395.75 373.77
  Z"
/>
<path fill="#0c3b50" d="
  M 526.09 376.66
  C 514.83 394.36 501.48 405.30 482.26 416.00
  Q 472.25 421.57 464.99 423.20
  Q 445.20 427.63 425.34 425.29
  C 407.78 422.42 389.42 420.80 373.32 413.95
  Q 365.43 410.60 359.33 402.32
  L 355.92 397.82
  Q 357.01 397.61 357.08 397.01
  Q 360.99 398.37 363.07 399.42
  C 392.51 414.14 426.90 421.59 458.99 415.65
  C 478.44 412.05 496.66 402.61 512.04 390.31
  C 514.75 388.14 518.25 384.98 520.31 382.00
  Q 522.57 378.73 526.09 376.66
  Z"
/>
<path fill="#000d33" d="
  M 355.92 397.82
  L 359.33 402.32
  L 360.19 408.63
  A 0.57 0.57 0.0 0 1 359.52 409.27
  C 349.84 407.53 341.85 405.51 331.53 406.45
  C 325.86 406.97 319.74 409.21 313.77 410.58
  Q 311.56 411.08 311.03 409.21
  C 309.16 402.66 313.86 400.40 316.90 395.30
  C 324.91 381.86 340.81 380.28 351.19 392.07
  Q 352.34 393.37 355.92 397.82
  Z"
/>
<path fill="#000d33" d="
  M 471.91 496.44
  L 477.98 510.57
  Q 484.53 529.87 489.53 550.12
  Q 491.04 556.24 491.40 562.55
  Q 492.69 584.82 492.06 607.36
  Q 492.04 608.47 490.25 608.47
  C 476.67 608.53 463.09 608.65 449.52 608.26
  Q 443.25 608.08 436.95 608.86
  C 433.99 609.05 430.96 609.35 428.01 609.33
  Q 386.13 608.96 344.25 609.58
  C 306.48 610.13 268.62 609.49 230.83 609.47
  C 224.81 609.46 218.78 609.08 212.76 608.79
  C 210.24 608.66 207.49 609.20 204.73 609.05
  C 195.28 608.56 185.83 608.77 176.32 608.73
  A 1.74 1.72 86.4 0 1 174.61 607.21
  L 173.77 600.53
  L 173.53 559.41
  Q 178.08 555.33 179.41 551.70
  C 183.95 539.40 190.82 527.39 196.56 515.57
  Q 197.64 513.36 197.98 511.01
  C 209.60 483.86 225.53 460.16 250.83 444.24
  C 270.85 431.64 291.32 423.29 314.96 420.47
  C 337.67 417.76 361.66 418.28 382.25 424.50
  C 420.38 436.02 453.34 460.74 471.91 496.44
  Z
  M 269.97 480.68
  Q 263.19 484.84 257.53 490.34
  C 244.48 502.69 235.52 520.16 229.27 537.26
  Q 225.90 546.49 216.66 559.44
  Q 216.35 559.87 216.36 560.39
  L 216.61 573.00
  L 216.59 582.85
  Q 216.59 583.42 217.16 583.42
  C 291.70 583.85 366.21 583.97 440.73 583.16
  L 452.41 582.84
  Q 452.98 582.82 452.96 582.25
  L 452.52 571.71
  L 452.56 551.80
  A 1.62 1.58 28.4 0 0 452.28 550.90
  C 446.69 542.52 443.80 531.96 440.08 522.60
  Q 434.53 508.65 431.71 504.76
  Q 413.09 479.10 383.07 467.69
  C 375.52 464.82 370.09 464.12 360.23 462.56
  C 340.25 459.39 319.66 461.63 301.74 465.75
  Q 285.34 469.52 269.97 480.68
  Z"
/>
<path fill="#fcfdff" d="
  M 452.52 571.71
  Q 450.87 572.25 450.55 570.66
  A 0.74 0.73 84.2 0 0 449.83 570.07
  C 448.31 570.07 446.78 569.73 445.37 569.70
  C 431.24 569.46 416.68 568.73 403.00 568.74
  C 358.11 568.79 313.21 569.01 268.32 568.97
  Q 239.86 568.93 220.44 570.15
  Q 218.74 570.26 219.34 572.26
  Q 218.59 573.64 216.61 573.00
  L 216.36 560.39
  Q 216.35 559.87 216.66 559.44
  Q 225.90 546.49 229.27 537.26
  C 235.52 520.16 244.48 502.69 257.53 490.34
  Q 259.13 492.05 260.74 491.52
  Q 267.29 489.36 272.61 488.27
  C 282.87 486.18 292.98 483.73 303.14 481.28
  C 322.39 476.65 342.28 475.54 361.84 478.53
  C 376.17 480.72 388.01 484.79 401.22 487.41
  Q 405.74 488.30 406.90 484.68
  A 1.00 1.00 0.0 0 0 406.29 483.44
  C 396.40 479.84 386.41 475.73 376.21 473.14
  C 361.44 469.38 347.24 467.28 332.31 468.61
  Q 326.57 469.12 318.12 470.29
  C 307.32 471.79 296.53 475.28 285.81 478.01
  C 282.17 478.94 276.81 479.27 272.40 481.76
  Q 271.97 482.00 271.49 481.88
  Q 269.64 481.43 269.97 480.68
  Q 285.34 469.52 301.74 465.75
  C 319.66 461.63 340.25 459.39 360.23 462.56
  C 370.09 464.12 375.52 464.82 383.07 467.69
  Q 413.09 479.10 431.71 504.76
  Q 434.53 508.65 440.08 522.60
  C 443.80 531.96 446.69 542.52 452.28 550.90
  A 1.62 1.58 28.4 0 1 452.56 551.80
  L 452.52 571.71
  Z
  M 249.52 523.72
  Q 235.46 532.94 228.84 547.28
  Q 225.97 551.09 224.79 555.10
  A 1.33 1.32 -78.8 0 0 225.91 556.79
  C 235.60 557.87 245.15 558.88 255.01 559.04
  Q 282.28 559.50 299.44 559.16
  Q 305.94 559.04 310.81 560.77
  C 312.23 561.28 315.15 559.96 316.75 559.87
  Q 330.28 559.17 343.75 560.71
  C 351.22 561.57 362.79 560.42 373.53 561.42
  C 380.66 562.08 386.98 561.08 393.74 560.67
  Q 395.82 560.55 397.97 561.40
  C 403.56 563.62 407.73 562.57 413.10 561.92
  Q 413.44 561.88 413.49 562.22
  L 413.55 562.67
  A 0.21 0.20 -10.3 0 0 413.80 562.84
  Q 418.49 561.70 423.28 562.02
  A 1.55 1.55 0.0 0 0 424.92 560.31
  Q 424.39 555.35 421.49 551.32
  Q 421.17 550.87 420.63 550.79
  Q 418.17 550.41 416.85 548.06
  Q 416.61 547.63 416.11 547.68
  Q 415.02 547.79 413.96 547.48
  Q 412.93 547.18 413.99 547.06
  L 415.75 546.84
  L 445.54 547.44
  Q 446.27 547.45 445.97 546.79
  Q 439.78 533.16 427.48 523.42
  Q 433.17 519.24 434.05 513.26
  Q 434.25 511.88 432.87 511.80
  Q 432.40 511.77 432.12 511.40
  L 428.62 506.72
  Q 428.32 506.32 427.83 506.20
  Q 388.88 497.09 349.00 494.01
  C 338.14 493.17 323.42 494.04 310.93 496.33
  Q 282.61 501.54 254.28 506.74
  C 252.48 507.07 243.97 506.88 245.57 511.19
  Q 247.30 515.80 247.03 519.77
  A 1.41 1.40 -60.9 0 0 247.28 520.66
  L 249.52 523.72
  Z"
/>
<path fill="#fbf7cb" d="
  M 257.53 490.34
  Q 263.19 484.84 269.97 480.68
  Q 269.64 481.43 271.49 481.88
  Q 271.97 482.00 272.40 481.76
  C 276.81 479.27 282.17 478.94 285.81 478.01
  C 296.53 475.28 307.32 471.79 318.12 470.29
  Q 326.57 469.12 332.31 468.61
  C 347.24 467.28 361.44 469.38 376.21 473.14
  C 386.41 475.73 396.40 479.84 406.29 483.44
  A 1.00 1.00 0.0 0 1 406.90 484.68
  Q 405.74 488.30 401.22 487.41
  C 388.01 484.79 376.17 480.72 361.84 478.53
  C 342.28 475.54 322.39 476.65 303.14 481.28
  C 292.98 483.73 282.87 486.18 272.61 488.27
  Q 267.29 489.36 260.74 491.52
  Q 259.13 492.05 257.53 490.34
  Z"
/>
<path fill="#002a44" d="
  M 499.23 488.90
  L 499.03 610.79
  L 498.13 607.75
  Q 497.98 607.26 497.53 607.03
  Q 495.02 605.73 492.06 607.36
  Q 492.69 584.82 491.40 562.55
  Q 491.04 556.24 489.53 550.12
  Q 484.53 529.87 477.98 510.57
  Q 479.09 508.12 480.03 505.85
  C 483.04 498.59 491.83 492.58 499.23 488.90
  Z"
/>
<path fill="#002a44" d="
  M 174.75 492.04
  Q 187.86 499.85 197.98 511.01
  Q 197.64 513.36 196.56 515.57
  C 190.82 527.39 183.95 539.40 179.41 551.70
  Q 178.08 555.33 173.53 559.41
  C 173.17 554.45 172.67 549.69 172.83 544.53
  Q 173.26 531.22 171.55 518.20
  Q 169.69 506.31 171.69 494.07
  Q 171.76 493.59 172.20 493.36
  L 174.75 492.04
  Z"
/>
<path fill="#fbe6ac" d="
  M 427.48 523.42
  C 400.77 503.09 361.19 498.20 327.71 500.37
  C 313.84 501.27 300.36 504.55 286.52 508.31
  Q 266.49 513.75 249.52 523.72
  L 247.28 520.66
  A 1.41 1.40 -60.9 0 1 247.03 519.77
  Q 247.30 515.80 245.57 511.19
  C 243.97 506.88 252.48 507.07 254.28 506.74
  Q 282.61 501.54 310.93 496.33
  C 323.42 494.04 338.14 493.17 349.00 494.01
  Q 388.88 497.09 427.83 506.20
  Q 428.32 506.32 428.62 506.72
  L 432.12 511.40
  Q 432.40 511.77 432.87 511.80
  Q 434.25 511.88 434.05 513.26
  Q 433.17 519.24 427.48 523.42
  Z"
/>
<path fill="#000d33" d="
  M 427.48 523.42
  Q 439.78 533.16 445.97 546.79
  Q 446.27 547.45 445.54 547.44
  L 415.75 546.84
  L 228.84 547.28
  Q 235.46 532.94 249.52 523.72
  Q 266.49 513.75 286.52 508.31
  C 300.36 504.55 313.84 501.27 327.71 500.37
  C 361.19 498.20 400.77 503.09 427.48 523.42
  Z"
/>
<path fill="#b5dad9" d="
  M 171.55 518.20
  Q 173.26 531.22 172.83 544.53
  C 172.67 549.69 173.17 554.45 173.53 559.41
  L 173.77 600.53
  Q 174.45 601.39 171.45 600.69
  L 171.55 518.20
  Z"
/>
<path fill="#f8fbf7" d="
  M 415.75 546.84
  L 413.99 547.06
  Q 412.93 547.18 413.96 547.48
  Q 415.02 547.79 416.11 547.68
  Q 416.61 547.63 416.85 548.06
  Q 418.17 550.41 420.63 550.79
  Q 421.17 550.87 421.49 551.32
  Q 424.39 555.35 424.92 560.31
  A 1.55 1.55 0.0 0 1 423.28 562.02
  Q 418.49 561.70 413.80 562.84
  A 0.21 0.20 -10.3 0 1 413.55 562.67
  L 413.49 562.22
  Q 413.44 561.88 413.10 561.92
  C 407.73 562.57 403.56 563.62 397.97 561.40
  Q 395.82 560.55 393.74 560.67
  C 386.98 561.08 380.66 562.08 373.53 561.42
  C 362.79 560.42 351.22 561.57 343.75 560.71
  Q 330.28 559.17 316.75 559.87
  C 315.15 559.96 312.23 561.28 310.81 560.77
  Q 305.94 559.04 299.44 559.16
  Q 282.28 559.50 255.01 559.04
  C 245.15 558.88 235.60 557.87 225.91 556.79
  A 1.33 1.32 -78.8 0 1 224.79 555.10
  Q 225.97 551.09 228.84 547.28
  L 415.75 546.84
  Z"
/>
<path fill="#fbf7cb" d="
  M 452.52 571.71
  L 452.96 582.25
  Q 452.98 582.82 452.41 582.84
  L 440.73 583.16
  Q 438.20 583.23 437.02 581.11
  Q 436.77 580.67 436.27 580.63
  Q 429.66 580.18 423.06 579.99
  C 420.30 579.90 417.99 578.88 415.19 578.51
  Q 414.81 578.46 414.51 578.22
  Q 414.09 577.88 413.68 578.16
  Q 413.27 578.45 412.77 578.47
  Q 408.56 578.66 404.72 577.19
  C 400.87 575.72 396.93 576.26 392.99 576.68
  C 390.47 576.95 388.48 575.78 386.22 575.80
  Q 383.39 575.83 380.56 575.67
  C 376.46 575.44 372.33 576.23 368.01 575.68
  C 366.24 575.46 364.31 576.58 362.31 576.30
  C 352.27 574.92 343.89 575.93 334.55 576.23
  C 331.63 576.32 328.76 575.05 325.25 575.73
  C 310.57 578.57 294.20 573.78 281.45 578.00
  Q 278.81 578.87 275.88 579.07
  C 272.35 579.30 269.01 580.21 265.60 580.25
  Q 250.63 580.40 235.67 580.33
  C 232.18 580.31 226.51 581.14 221.68 580.22
  Q 221.17 580.12 220.91 579.67
  C 219.58 577.46 219.88 574.71 219.34 572.26
  Q 218.74 570.26 220.44 570.15
  Q 239.86 568.93 268.32 568.97
  C 313.21 569.01 358.11 568.79 403.00 568.74
  C 416.68 568.73 431.24 569.46 445.37 569.70
  C 446.78 569.73 448.31 570.07 449.83 570.07
  A 0.74 0.73 84.2 0 1 450.55 570.66
  Q 450.87 572.25 452.52 571.71
  Z"
/>
<path fill="#fdfce0" d="
  M 219.34 572.26
  C 219.88 574.71 219.58 577.46 220.91 579.67
  Q 221.17 580.12 221.68 580.22
  C 226.51 581.14 232.18 580.31 235.67 580.33
  Q 250.63 580.40 265.60 580.25
  C 269.01 580.21 272.35 579.30 275.88 579.07
  Q 278.81 578.87 281.45 578.00
  C 294.20 573.78 310.57 578.57 325.25 575.73
  C 328.76 575.05 331.63 576.32 334.55 576.23
  C 343.89 575.93 352.27 574.92 362.31 576.30
  C 364.31 576.58 366.24 575.46 368.01 575.68
  C 372.33 576.23 376.46 575.44 380.56 575.67
  Q 383.39 575.83 386.22 575.80
  C 388.48 575.78 390.47 576.95 392.99 576.68
  C 396.93 576.26 400.87 575.72 404.72 577.19
  Q 408.56 578.66 412.77 578.47
  Q 413.27 578.45 413.68 578.16
  Q 414.09 577.88 414.51 578.22
  Q 414.81 578.46 415.19 578.51
  C 417.99 578.88 420.30 579.90 423.06 579.99
  Q 429.66 580.18 436.27 580.63
  Q 436.77 580.67 437.02 581.11
  Q 438.20 583.23 440.73 583.16
  C 366.21 583.97 291.70 583.85 217.16 583.42
  Q 216.59 583.42 216.59 582.85
  L 216.61 573.00
  Q 218.59 573.64 219.34 572.26
  Z"
/>
<path fill="#446f7f" d="
  M 173.77 600.53
  L 174.61 607.21
  A 1.74 1.72 86.4 0 0 176.32 608.73
  C 185.83 608.77 195.28 608.56 204.73 609.05
  C 207.49 609.20 210.24 608.66 212.76 608.79
  C 218.78 609.08 224.81 609.46 230.83 609.47
  C 268.62 609.49 306.48 610.13 344.25 609.58
  Q 386.13 608.96 428.01 609.33
  C 430.96 609.35 433.99 609.05 436.95 608.86
  L 440.76 609.00
  A 0.78 0.78 0.0 0 1 441.46 609.51
  C 443.60 615.43 450.38 621.49 454.89 626.07
  C 393.80 626.50 328.15 625.95 280.81 626.35
  Q 222.64 626.84 180.50 626.25
  C 176.34 626.19 171.37 625.69 171.28 620.01
  Q 171.11 610.39 171.45 600.69
  Q 174.45 601.39 173.77 600.53
  Z"
/>
<path fill="#0c3b50" d="
  M 499.03 610.79
  L 499.06 624.67
  A 1.20 1.20 0.0 0 1 497.87 625.87
  L 454.89 626.07
  C 450.38 621.49 443.60 615.43 441.46 609.51
  A 0.78 0.78 0.0 0 0 440.76 609.00
  L 436.95 608.86
  Q 443.25 608.08 449.52 608.26
  C 463.09 608.65 476.67 608.53 490.25 608.47
  Q 492.04 608.47 492.06 607.36
  Q 495.02 605.73 497.53 607.03
  Q 497.98 607.26 498.13 607.75
  L 499.03 610.79
  Z"
/>
</svg>
